<mxfile host="app.diagrams.net" agent="Mozilla/5.0 (Windows NT 10.0; Win64; x64) AppleWebKit/537.36 (KHTML, like Gecko) Chrome/130.0.0.0 Safari/537.36" version="24.8.3">
  <diagram name="Page-1" id="OHH3I2LsDIl-u460Q2YK">
    <mxGraphModel dx="1562" dy="845" grid="1" gridSize="10" guides="1" tooltips="1" connect="1" arrows="1" fold="1" page="1" pageScale="1" pageWidth="827" pageHeight="1169" math="0" shadow="0">
      <root>
        <mxCell id="0" />
        <mxCell id="1" parent="0" />
        <mxCell id="FCakNzBRKV9IFRG8RWk--1" value="" style="shape=image;verticalLabelPosition=bottom;labelBackgroundColor=default;verticalAlign=top;aspect=fixed;imageAspect=0;image=data:image/png,iVBORw0KGgoAAAANSUhEUgAABLAAAALgCAYAAACEf44CAAAAAXNSR0IArs4c6QAAIABJREFUeF7s3Qe4XdV95/3f3vvU24vuvZIQIBDYIJpEB9nGODbGjmPHYzs4cebNO3HstMmb553JkzKTZCaOk0xix45NEx3TkYwBg40NpiN6FSCECur1Sle3nH52mWefK11xUbvllH3O/p6YB5DOXuu/Pmtdx/xYa23jB1dc4YkPAggggAACCCCAAAIIIIAAAggggAACARUwfnDFlQRYAZ0cykIAAQQQQAABBBBAAAEEEEAAAQQQkAiwWAUIIIAAAggggAACCCCAAAIIIIAAAoEWIMAK9PRQHAIIIIAAAggggAACCCCAAAIIIIAAARZrAAEEEEAAAQQQQAABBBBAAAEEEEAg0AIEWIGeHopDAAEEEEAAAQQQQAABBBBAAAEEECDAYg0ggAACCCCAAAIIIIAAAggggAACCARawPghbyEM9ARRHAIIIIAAAggggAACCCCAAAIIIBB2AeOHV17lhR2B8SOAAAIIIIAAAggggAACCCCAAAIIBFeAACu4c0NlCCCAAAIIIIAAAggggAACCCCAAAKSCLBYBggggAACCCCAAAIIIIAAAggggAACgRYgwAr09FAcAggggAACCCCAAAIIIIAAAggggAABFmsAAQQQQAABBBBAAAEEEEAAAQQQQCDQAgRYgZ4eikMAAQQQQAABBBBAAAEEEEAAAQQQIMBiDSCAAAIIIIAAAggggAACCCCAAAIIBFqAACvQ00NxCCCAAAIIIIAAAggggAACCCCAAALGD6+82oMBAQQQQAABBBBAAAEEEEAAAQQQQACBoAoQYAV1ZqgLAQQQQAABBBBAAAEEEEAAAQQQQKAkYFx+FTuwWAsIIIAAAggggAACCCCAAAIIIIAAAsEVIMAK7txQGQIIIIAAAggggAACCCCAAAIIIIAAO7BYAwgggAACCCCAAAIIIIAAAggggAACQRdgB1bQZ4j6EEAAAQQQQAABBBBAAAEEEEAAgZALGJdftZi3EIZ8ETB8BBBAAAEEEEAAAQQQQAABBBBAIMgCBFhBnh1qQwABBBBAAAEEEEAAAQQQQAABBBDw30LIDizWAQIIIIAAAggggAACCCCAAAIIIIBAcAUIsII7N1SGAAIIIIAAAggggAACCCCAAAIIIDD6FkJ2YLESEEAAAQQQQAABBBBAAAEEEEAAAQSCK2BcfjUBVnCnh8oQQAABBBBAAAEEEEAAAQQQQAABBIwrCLBYBQgggAACCCCAAAIIIIAAAggggAACARYgwArw5FAaAggggAACCCCAAAIIIIAAAggggIBkXHH1NR4QCCCAAAIIIIAAAggggAACCCCAAAIIBFWAACuoM0NdCCCAAAIIIIAAAggggAACCCCAAAIlAQIsFgICCCCAAAIIIIAAAggggAACCCCAQKAFCLACPT0UhwACCCCAAAIIIIAAAggggAACExVwXeuArxqGJ8NwJ9oE3wuoAAFWQCeGshBAAAEEEEAAAQQQQAABBBBAYHICj/3qs+MeSKVNzZ69QWef8+bkGuLbgRMwrljMJe6BmxUKQgABBBBAAAEEEEAAAQQQQACBSQtkMslxz1zxg9/R57/wkk6av3zSbfFAsAQIsII1H1SDAAIIIIAAAggggAACCCCAAALTFLDtqB595GNqa8vrgkXPTLM1Hg+CAAFWEGaBGhBAAAEEEEAAAQQQQAABBBBAoGwCL72wSENDtj55yQtla5OGaitgXLH4Wq+2JdA7AggggAACCCCAAAIIIIAAAgggUB6BNWtO0X33nKY//JNH1Nq6uzyN0krNBYwrCbBqPgkUgAACCCCAAAIIIIAAAggggAAC0xfYvatLv/jFx/XpTz+nGT3bpt8gLQRGgAArMFNBIQgggAACCCCAAAIIIIAAAgggMB2BJXddpkUfeVJHzdk+nWZ4NoACBFgBnBRKQgABBBBAAAEEEEAAAQQQQACByQm88cZHdc+S47Rg4Q5ZEWfs4Tlz+rXwzLdkmvt/bXIt8+0gCBBgBWEWqAEBBBBAAAEEEEAAAQQQQAABBKYlkM02a3goekAbiYSttva0DIMrwKcFXOOHCbBqPAF0jwACCCCAAAIIIIAAAggggAACCCBweAHjysXXEUGyShBAAAEEEEAAAQQQQAABBBBAAAEEAitAgBXYqaEwBBBAAAEEEEAAAQQQQAABBBBAAAFfwLjyGnZgsRQQQAABBBBAAAEEEEAAAQQQQAABBIIrQIAV3LmhMgQQQAABBBBAAAEEEEAAAQQQQAABdmCxBhBAAAEEEEAAAQQQQAABBBBAAAEEgi7ADqygzxD1IYAAAggggAACCCCAAAIIIIAAAiEXMK7iDqyQLwGGjwACCCCAAAIIIIAAAggggAACCARbgAAr2PNDdQgggAACCCCAAAIIIIAAAggggEDoBYyrrrneC70CAAgggAACCCCAAAIIIIAAAggggAACgRUgwArs1FAYAggggAACCCCAAAIIIIAAAggggIAvQIDFOkAAAQQQQAABBBBAAAEEEEAAAQQQCLQAAVagp4fiEEAAAQQQQAABBBBAAAEEEEBgIgK260mep4hlHvLr+VxOL734glavWjmRJgP9nbPOPlfzTz1NkUgk0HWWqzjjqmu5A6tcmLSDAAIIIIAAAggggAACCCCAAAK1EUhlCorHoopGjIMWkM/n9ezTT2n1qncVjUZrU2QZe7VtW2eefY4WnnW2TPPQoV0Zu6xpUwRYNeWncwQQQAABBBBAAAEEEEAAAQQQKIdAKmNLhtSSPHBHkh/2PL/sGa14+61SV40QYBWLxdJYFn30Ip00f74syyoHY2DbIMAK7NRQGAIIIIAAAggggAACCCCAAAIITFRg93BRpuGpszU27pFsNqvnly0bd2ywkQIsf7BnnXOuzlh4ZkMfJyTAmuhPAt9DAAEEEEAAAQQQQAABBBBAAIFACjiuqx17/COEljqbrXFH6p587FG9u/KdcXU3WoBlGIbOu3CRTj9jQSDnpxxFEWCVQ5E2EEAAAQQQQAABBBBAAAEEEECgZgL5fFGpQkSG4aq9yZRl7r8H66brrhlXV2dnpxYvXlyzWsvV8WWXXXZAU//lG39YruYD145x9bU3eIGrioIQQAABBBBAAAEEEEAAAQQQQACBCQqks3nlFZdjF9UWV+kyd//jBx43XTc+rGrkAOv3v/FHExSrv68RYNXfnFExAggggAACCCCAAAIIIIAAAgi8T2BgKC0j1iLbLqol5ikZ3/+WwRsJsBpirRhXX8cOrIaYSQaBAAIIIIAAAggggAACCCCAQBgFPGn77hElWzqUzeaUsIrqaGsalfCkUAVY32zkHVgEWGH88WbMCCCAAAIIIIAAAggggAACCDSEgOd52rxjSF0zepVOZxUzC+poTY6N7cZrQ3SEkACrIdY0g0AAAQQQQAABBBBAAAEEEEAAgQYTcD1Pm7YPaUZPn/L5gtLDu3X0rC4CrAabZ44QNtiEMhwEEEAAAQQQQAABBBBAAAEEwiTguK7WbNytucceo1y+oIFdO3XcnG4CrAZbBARYDTahDAcBBBBAAAEEEEAAAQQQQACBMAn4AZZ/hHDWrNnK5vLavm2rPnzcTAKsBlsExtXX3ei/VZIPAggggAACCCCAAAIIIIAAAgggUJcCrusqa0ckuUpEXFmmuXccnsJ1B9Yf1+X8TaRoAqyJKPEdBBBAAAEEEEAAAQQQQAABBBAItMBIXoqYUjI6vswbr7163C90dnZq8eLxF7sHemCHKO6yyy474Hd+/5sEWPU4l9SMAAIIIIAAAggggAACCCCAAAIhESDAkho6wFrMEcKQ/CgzTAQQQAABBBBAAAEEEEAAAQQaV2B47w6spg/swLohRDuwvt7IO7AIsBr3h5eRIYAAAggggAACCCCAAAIIIBAWAQIsqbEDrOu5xD0sP8yMEwEEEEAAAQQQQAABBBBAAIFGFRjOjd6B1RR73wg9KVQ7sP6wge/AWkyA1ag/u4wLAQQQQAABBBBAAAEEEEAAgdAIHDTAknTDNeG5xP3rBFihWe8MFAEEEEAAAQQQQAABBBBAAAEE6lCAAEtq8ADrJq8O1yUlI4AAAggggAACCCCAAAIIIIAAAmMCwzlv7xFCY5zKDddcNe7vOzs7tXjx4rqXu+yyyw4Yw9f/8E/qflyHGoCx+HoCrIadXQaGAAIIIIAAAggggAACCCCAQEgECLD8HVgEWCFZ7gwTAQQQQAABBBBAAAEEEEAAAQTqUYAAiwCrHtctNSOAAAIIIIAAAggggAACCCCAQIgECLAIsEK03BkqAggggAACCCCAAAIIIIAAAgjUowABFgFWPa5bakYAAQQQQAABBBBAAAEEEEAAgRAJVCPA2rlzpzzPU19fn4rFou6991597nOfU1NTkzZv3qxYLKbe3t4jqq9du1bz5s074vcO94UQXuJ+M28hnNaS4WEEEEAAAQQQQAABBBBAAAEEEKi1wHDOVcQ01BR7/1sIPZXzLYQDAwN6+OGH9dWvflWrVq3SCy+8oJkzZ+pTn/qUnn/+eR1zzDGaPXu2UqmUWlpaxkj8sMt1XcXj8dKvXXzxxXr88cenRXbwAOtPp9VmkB82rrmBACvIE0RtCCCAAAIIIIAAAggggAACCCBwZIGh7GiA1Rx/f4AlXb/4ynEPd3Z2avHixUdu8BDf+Iu/+At997vf1ZIlS/SFL3xBr776qi644AI98MAD+uQnP6kHH3ywtBNr+fLl+sY3vlHakeV//7TTTtObb76pr33ta7r00kt122236YwzzphyHQcLsP7gjwiwpgzKgwgggAACCCCAAAIIIIAAAggggEClBaoVYD3yyCOaP39+KYy65JJLSjuvzjzzTC1durQUTN18882lP/uf5557Tl/60pd0//33a8GCBTr66KPV09OjhQsX6rXXXpsWCQHWtPh4GAEEEEAAAQQQQAABBBBAAAEEEKi+QLUCLP844N13363zzz9fJ5xwQulIYWtrq5qbm2VZllavXl0KtvyP4zil3xseHtb69etLd2b9+Z//eekIIQHW5NYIRwgn58W3EUAAAQQQQAABBBBAAAEEEEAggALVCrD8of/jP/6jPv/5z5eOAPqB1bXXXqvvfOc7JZWrrrpKn/jEJ0qXvA8ODurYY48t7dY68cQTS6GVf1/WN7/5Tf3rv/7rtC5yZwdWABchJSGAAAIIIIAAAggggAACCCCAAAKHE6hmgLV161b5d2klk0kVCgWtWbOmdKzQ//gXvQ8NDcm2bc2dO1fRaFQbNmwovb3QvxvLv+R927Ztpd/3jxRO9UOANVU5nkMAAQQQQAABBBBAAAEEEEAAAQRqJFDNAKtGQxzXLQFWEGaBGhBAAAEEEEAAAQQQQAABBBBAAIFJCBBgSbyFcBILhq8igAACCCCAAAIIIIAAAggggAAC1RYgwGr4AOtHXrUXFf0hgAACCCCAAAIIIIAAAggggAAC5RQYyjqKmIaa4+a4Zq9ffMW4v/fvrlq8eHE5u65JWwc/Qvhfa1JLNTo1rrmBAKsa0PSBAAIIIIAAAggggAACCCCAAAKVEyDA8ndgNXKAdSMBVuV+fGgZAQQQQAABBBBAAAEEEEAAAQSqITCUcRSxDrID6+oQ7cD6YwKsaqw1+kAAAQQQQAABBBBAAAEEEEAAAQSmJECAJf1BIwdY17IDa0o/GDyEAAIIIIAAAggggAACCCCAAALBEThUgHVdiHZgfYMAKzgLkkoQQAABBBBAAAEEEEAAAQQQQACBDwoQYEkEWPxcIIAAAggggAACCCCAAAIIIIAAAgEWIMAiwArw8qQ0BBBAAAEEEEAAAQQQQAABBBBAQCLAavgA6xaPhY4AAggggAACCCCAAAIIIIAAAgjUs8BQxt77FkJr3DCuu/rycX/f2dmpxYsX1/NQS7VfdtllB4zhG3/8Z3U/rkMNwLj2RgKshp1dBoYAAggggAACCCCAAAIIIIBASAQIsPwdWARYIVnuDBMBBBBAAAEEEEAAAQQQQAABBOpRgACLAKse1y01I4AAAggggAACCCCAAAIIIIBAiAQIsAiwQrTcGSoCCCCAAAIIIIAAAggggAACCNSjAAFWgwdY193EHVj1+INJzQgggAACCCCAAAIIIIAAAgggsF9gMD16iXtLYv8l7v5b6667KjyXuH/zTxr4DiwCLH7cEUAAAQQQQAABBBBAAAEEEECg3gUOFmD5Y7qWAKvep7ZUv3HdTbf6gSQfBBBAAAEEEEAAAQQQQAABBBBAoG4FBtPFvTuwIu8bgxeyAOv/q9v5O1LhBFhHEuL3EUAAAQQQQAABBBBAAAEEEEAg8AKjAZY57gihX/S1V/1wXO2dnZ1avHhx4MdzpAIvu+yyA77yzT8hwDqSG7+PAAIIIIAAAggggAACCCCAAAII1EyAAEsiwKrZ8qNjBBBAAAEEEEAAAQQQQAABBBBA4MgChwqwfvbAfVr/3tqxBgzDUDKZPHKDAf9GJpMZV+HCs8/VhYs+GvCqp14eRwinbseTCCCAAAIIIIAAAggggAACCCAQEIFDBVgjI8N68rFfacP6dWOVRqPRgFQ99TKKxeLYw6edsVDnX/gRxWKxqTcY8CeN627mEveAzxHlIYAAAggggAACCCCAAAIIIIDAEQQGU0Wdkt6jLX29477ZNTKs3TL0iycf13trVpd+r5ECrDPPOU9nn3velMZke7Z2FLbrqPicA3S35Dcf9NdrtRAJsGolT78IIIAAAggggAACCCCAAAIIIFA2AT/A+sqjP9OG4+dp1Wmnldqd0b9T5z71lB77jc9roFjUY4/8srQTqxECLNu2deoZC7TooxfJsqwpOfoB1o9Td6nPmKWLW36t1IbjOXo49ZCajWZ9rOXiKbVbiYcIsCqhSpsIIIAAAggggAACCCCAAAIIIFBVAT/A6hvao88vuVUv/s7vqmhIn1hyt372u/9Zezo6S7WkUiN6+onHtWnD+qrWVonOTjn9DJ197vmKx+PTaj7ljGjxniv0lbbf1rGxudpU3KAXMs/py+1fnVa75X6YAKvcorSHAAIIIIAAAggggAACCCCAAAJVF/ADrIhlatGmtTrtx0uUaWnRG5f9ttb29VW9lnrrcFthix7I3Kf/3Pb7+vnwT/WR5ovUF50ZqGEQYAVqOigGAQQQQAABBBBAAAEEEEAAAQSmIrAvwGpJWvrtaxcrZ1m69+vfmEpToXvGk6fHU7/SWnu15sdO1aKmjwXOwLj+5tu8wFVFQQgggAACCCCAAAIIIIAAAggggMAEBAxD6upoV2t7pyzTUNeTT+jEJUtUMKTlv/01rZo1ewKt8JUdxe26fOh7+lb3v8g0pnanViUVCbAqqUvbCCCAAAIIIIAAAggggAACCCBQUYHeGd06c8Fp2rB5u5p3bNNJP/yBXvjyb6mws18X3Xmb7v/jP9VQe0dFayh3447j6r3N/SoWi0rEokrEI0omE4qYpqJRS6ZpKBaNlrXbXcV+/XDo3/WtGf+nrO2WqzECrHJJ0g4CCCCAAAIIIIAAAggggAACCFRd4MJzz9TA4LD+7T+u0bfffFUn//M/6JdNrVq1dqMuWfGaOla8rQe+eJmyVnkDn0oO1PU8ufJ3QRnywyz/iJ9j25KnUnjleZ5Mw/9rT82JuFzXUTIeLf3eVD8EWFOV4zkEEEAAAQQQQAABBBBAAAEEEEDgCAKLzj9b/f0D2v3331ZfIaWZt92i5StWac36zfLjnC89/IAeOWeRhjq76sbSMAwZZlSeJ9muI8ceDbE815X/i6N3QXmyTClmmaXwKha15B+nnOpnjz2gO1I/0p92/P9TbaKiz7EDq6K8NI4AAggggAACCCCAAAIIIIAAApUU6JnRpTPPOF1vr1ytvp5u+X//zHMvKpXOVLLbirZtO47Wb9mlQsEuBVOJRKx0lNC/4ysasRSLRcp+hLCiAypD48b1P+IS9zI40gQCCCCAAAIIIIAAAggggAACCNRIoKe7UyfOO16FQlGr1q7V8Ei6RpXQbaUECLAqJUu7CCCAAAIIIIAAAggggAACCCCAAAJlESDAKgsjjSCAAAIIIIAAAggggAACCCCAAAIIVErAuP5Ht4/e/cUHAQQQQAABBBBAAAEEEEAAAQQQQACBAAoQYAVwUigJAQQQQAABBBBAAAEEEEAAAQQQQGC/AAEWqwEBBBBAAAEEEEAAAQQQQAABBBBAINACBFiBnh6KQwABBBBAAAEEEEAAAQQQQAABBBAwbuAOLFYBAggggAACCCCAAAIIIIAAAggggECABQiwAjw5lIYAAggggAACCCCAAAIIIIAAAgggIBFgsQoQQAABBBBAAAEEEEAAAQQQQAABBAItYNxwy+1eoCukOAQQQAABBBBAAAEEEEAAAQQQQACBUAsYN9xyBwFWqJcAg0cAAQQQQAABBBBAAAEEEEAAAQSCLUCAFez5oToEEEAAAQQQQAABBBBAAAEEEEAg9AIEWKFfAgAggAACCCCAAAIIIIAAAggggAACwRYgwAr2/FAdAggggAACCCCAAAIIIIAAAgggEHoBAqzQLwEAEEAAAQQQQAABBBBAAAEEEEAAgWALEGAFe36oDgEEEEAAAQQQQAABBBBAAAEEEAi9AAFW6JcAAAgggAACCCCAAAIIIIAAAggggECwBQiwgj0/VIcAAggggAACCCCAAAIIIIAAAgiEXsC48ZY7vdArAIAAAggggAACCCCAAAIIIIAAAgggEFgB48ZbCbACOzsUhgACCCCAAAIIIIAAAggggAACCCAgAiwWAQIIIIAAAggggAACCCCAAAIIIIBAoAUIsAI9PRSHAAIIIIAAAggggAACCCCAAAIIIECAxRpAAAEEEEAAAQQQQAABBBBAAAEEEAi0AAFWoKeH4hBAAAEEEEAAAQQQQAABBBBAAAEECLBYAwgggAACCCCAAAIIIIAAAggggAACgRYgwAr09FAcAggggAACCCCAAAIIIIAAAggggIBx4613eTAggAACCCCAAAIIIIAAAggggAACCCAQVAECrKDODHUhgAACCCCAAAIIIIAAAggggAACCJQECLBYCAgggAACCCCAAAIIIIAAAggggAACgRYgwAr09FAcAggggAACCCCAAAIIIIAAAggggIBxE3dgsQoQQAABBBBAAAEEEEAAAQQQQAABBAIsYNx0G5e4B3h+KA0BBBBAAAEEEEAAAQQQQAABBBAIvQABVuiXAAAIIIAAAggggAACCCCAAAIIIIBAsAUIsII9P1SHAAIIIIAAAggggAACCCCAAAIIhF6AACv0SwAABBBAAAEEEEAAAQQQQAABBBBAINgCBFjBnh+qQwABBBBAAAEEEEAAAQQQQAABBEIvYNx0291e6BUAQAABBBBAAAEEEEAAAQQQQAABBBAIrAABVmCnhsIQQAABBBBAAAEEEEAAAQQQQAABBHwBAizWAQIIIIAAAggggAACCCCAAAIIIIBAoAWMmzlCGOgJojgEEEAAAQQQQAABBBBAAAEEEEAg7AIEWGFfAYwfAQQQQAABBBBAAAEEEEAAAQQQCLiAcfPtXOIe8DmiPAQQQAABBBBAAAEEEEAAAQQQQCDUAgRYoZ5+Bo8AAggggAACCCCAAAIIIIAAAggEX4AAK/hzRIUIIIAAAggggAACCCCAAAIIIIBAqAWMm29f4oVagMEjgAACCCCAAAIIIIAAAggggAACCARagAAr0NNDcQgggAACCCCAAAIIIIAAAggggAACBFisAQQQQAABBBBAAAEEEEAAAQQQQACBQAsQYAV6eigOAQQQQAABBBBAAAEEEEAAAQQQQIAAizWAAAIIIIAAAggggAACCCCAAAIIIBBoAQKsQE8PxSGAAAIIIIAAAggggAACCCCAAAIIEGCxBhBAAAEEEEAAAQQQQAABBBBAAAEEAi1g/OiOpV6gK6Q4BBBAAAEEEEAAAQQQQAABBBBAAIFQCxBghXr6GTwCCCCAAAIIIIAAAggggAACCCAQfAECrODPERUigAACCCCAAAIIIIAAAggggAACoRYgwAr19DN4BBBAAAEEEEAAAQQQQAABBBBAIPgCBFjBnyMqRAABBBBAAAEEEEAAAQQQQAABBEItQIAV6uln8AgggAACCCCAAAIIIIAAAggggEDwBQiwgj9HVIgAAggggAACCCCAAAIIIIAAAgiEWoAAK9TTz+ARQAABBBBAAAEEEEAAAQQQQACB4AsQYAV/jqgQAQQQQAABBBBAAAEEEEAAAQQQCLUAAVaop5/BI4AAAggggAACCCCAAAIIIIAAAsEXMH5054+94JdJhQgggAACCCCAAAIIIIAAAggggAACYRUgwArrzDNuBBBAAAEEEEAAAQQQQAABBBBAoE4EjFvYgVUnU0WZCCCAAAIIIIAAAggggAACCCCAQDgFCLDCOe+MGgEEEEAAAQQQQAABBBBAAAEEEKgbAQKsupkqCkUAAQQQQAABBBBAAAEEEEAAAQTCKUCAFc55Z9QIIIAAAggggAACCCCAAAIIlEXA80bfDWcYRlnaoxEEDiZAgMW6QAABBBBAAAEEEEAAAQQQQACBCQm4rivPc5XLZ5Ur5pTNpZXOjai1qUMzZxwl0zAn1A5fQmCyAgRYkxXj+wgggAACCCCAAAIIIIAAAgiERKBoF5TJpjU4MqDB1IAGhvv3jnx019W+3VeWaem0E85RV/uMkMgwzGoLGLfcec/oquODAAIIIIAAAggggAACCCCAAAKhEvADqH07qvLFnEYyQyoWC6U/p7Mj8n/NPxpY+kPm2DFB0xz9a//XPLkq2kWdXgqwekLlx2CrJ0CAVT1rekIAAQQQQAABBBBAAAEEEECgpgK2XZTt2NozvEv+7qrBkd3KFjKlX3P8P1y7FExZZkSGsS+kMqTSfw5+x5XrOQRYNZ3VcHRu3HIXO7DCMdWMEgEEEEAAAQQQQAABBBCzyQ5YAAAgAElEQVRAoN4EbKdYOqbn/+HfP+XfMWVa1rgoyfXc0rD8EGrfd/0wyg+oXNdRLp/TcGqPMvmUUtmR0o6r0QvXRyOp0cDKkmFY8ndWTfYzLsDqYAfWZP34/sQECLAm5sS3EEAAAQQQQAABBBBAAAEEEKiKQD6f08BQv3YP7yyFUJ7ryQ+J/ADLME1FLH931P7dUK4zGmAV7HwpnHJdT0VnNLzyv+eHXv5uKv8zGlDtOxI4+ufpfgiwpivI8xMRIMCaiBLfQQABBBBAAAEEEEAAAQQQQGCaAp48+f/xd0z5QZN/19TQyKD8XVaZbKp0fG8kM6xUdqgUMpn+HVP+XVOlvx4NoPw2/Of92Mnde6O1ZY6GUKUjf6N7qsburZpmyRN6nABrQkx8aZoCBFjTBORxBBBAAAEEEEAAAQQQQAABBA4m4N835e+gyuazpXBqaGRAjuMonRtRLp9RrpAdDabG7pcaDaL8XVKmaY2FVkHXJcAK+gw1Rn3GrdyB1RgzySgQQAABBBBAAAEEEEAAAQRqLuDfQZXOjGjzjvXaObhV3t4dV/5f+P/nH9mLmBGZhn/n1L7L0f2yp3+Ur1aD9wOsgl3UGf5bCLkDq1bT0PD9EmA1/BQzQAQQQAABBBBAAAEEEEAAgXIL+EHV6EXpxdLdU8OpwdIf2wc2jx3fK1247v+x996pfccAy11LrdsjwKr1DISjfwKscMwzo0QAAQQQQAABBBBAAAEEEJimQKGQLx37GxwZ0MBwvwrFfCnE8u+wKjrF0s4q/x4qP7Dy76IqxwXp0yy5Ko8TYFWFOfSdEGCFfgkAgAACCCCAAAIIIIAAAgiEV6C0k8p15B/x8y9H9wOpfDGvXD6rkfRQ6Q6rfCGnwdTuvZen7z32V3q7n39P1d4/l3ZZhfPjuxXsAkcIwzn9VRu1cetdP9n73oKq9UlHCCCAAAIIIIAAAggggAACCNRMwHVdZXPp0k6qTC6ldHakFE75l67nitnSsUB/91TpLYClN/v5b/jz76zyS97366Nv++Pjvw3RvwPLD7DO5Q4sFkTFBAiwKkZLwwgggAACCCCAAAIIIIAAAkET8Hdc7di1RRu3r9VIdmj0yJ8fVu1969/Y5epBKzzA9RBgBXhyGqg0AqwGmkyGggACCCCAAAIIIIAAAgggcHCBYrGg/j3btWtwhwZHdss/ihTxQ6u9F6zjNnUBAqyp2/HkxAUIsCZuxTcRQAABBBBAAAEEEEAAAQTqTCCVHlYqM6K1W1aUjrn5RwMjZlSWadXZSIJbLgFWcOemkSozbr2bO7AaaUIZCwIIIIAAAggggAACCCAQVgGvWFBh9bMyek/QTrtYuuNqx8DW0hFBy4rIMiMyjfBetl6pdTEWYJ3IHViVMqZdiQCLVYAAAggggAACCCCAAAIIINAQAvl3n1H2tbu0YfZHtDvRUjoe6O+28kMrf+cVn8oIEGBVxpVWxwsQYLEiEEAAAQQQQAABBBBAAAEE6krAc2y5w7vk7Nk6Vrebyyj3ymJtm/kxDXQfv/duq7oaVt0WS4BVt1NXV4Ubt959r393HR8EEEAAAQQQQAABBBBAAAEEAi/gHxPMvbZU+e2blM/tGKvXMC0NtR+jwa4PybaigR9HIxU4PsDqbaShMZYACRBgBWgyKAUBBBBAAAEEEEAAAQQQQODwAsW1zyi77PvaMvMSbW+fWbqMPWpFZRimPO63qsny2R9gnaeujp6a1ECnjS9AgNX4c8wIEUAAAQQQQAABBBBAAIH6F/Bc2dvWK7PsSu1qO1bbe0+WZHC3VQBmlgArAJMQghKM2zhCGIJpZogIIIAAAggggAACCCCAQD0LeCru2KTsM9/VULRXW+acK9e06nlADVX7+wOsbnZgNdTcBmkwBFhBmg1qQQABBBBAAAEEEEAAAQQQOEDAzaaUefpKpVJpbTz2I7ItwqsgLRMCrCDNRuPWQoDVuHPLyBBAAAEEEEAAAQQQQACBuhfw3ziY/tU/KTM8oE3Hfkr5WLLux9RoAyDAarQZDeZ4CLCCOS9UhQACCCCAAAIIIIAAAgiEXsAPrzJPfU+FLa9r0/FfVqqpPfQmQQQgwArirDReTcZtS+71Gm9YjAgBBBBAAAEEEEAAAQQQQKCeBfzwKr/iKeXeXKLNcy7WcOuMeh5OQ9c+FmB96DxxB1ZDT3VNB0eAVVN+OkcAAQQQQAABBBBAAAEEEPCKBTlD/SqsfeN9GJ4Kq5eqv+9C9c+YB1KABQiwAjw5DVQaAVYDTSZDQQABBBBAAAEEEEAAAQTqTcAPr7Kv3KfCzj3KWflS+W52szw3reGeCzTc1iuHNw4GeloJsAI9PQ1TnHHbkvs4Qtgw08lAEEAAAQQQQAABBBBAAIH6EiisXqb08mXacerfaaj3tFLxztDbKm7/iTzTUTQSl2EY9TWokFU7PsDqDdnoGW61BAiwqiVNPwgggAACCCCAAAIIIIAAAvsFPE/2tlVK/ervNXjSt7T15N8fp1Pcs1zFbXcrYnqKReLIBViAACvAk9NApRFgNdBkMhQEEEAAAQQQQAABBBBAoF4E7O3vKfPY/9bgsX+mbfP/SE4kcUDp9sBLKu78mSIqKhqJ1cvQQlcnAVboprwmAybAqgk7nSKAAAIIIIAAAggggAAC4RVwMyNKP/ofKhTn6N1PXX9YiOKu51Tc8ZPSLqyIFQ0vWoBHToAV4MlpoNIIsBpoMhkKAggggAACCCCAAAIIIBB0ATebUvalO5QaadLmc76tfLL78CW7tvKbb5ebeluxxGxZ7lDQhxi6+giwQjflNRmwcTuXuNcEnk4RQAABBBBAAAEEEEAAgbAJeHZBmeeuV2HdE9p00ZMa6Zon6cgXtHtuXoWt98gZWal4y4dl5deEjS7Q490XYC340Hnq7uAS90BPVh0XR4BVx5NH6QgggAACCCCAAAIIIIBAUAU81zmgtMLqZ5R+5U5tP/cO7ekbfePgRD9ecUT5jTdIhZ2Kl95MONEn+V6lBQiwKi1M+76AcfvS+zwoEEAAAQQQQAABBBBAAAEEECiXgGcXVdjyruzVPx3XZHHndu086W/Uf+KXp9SVm9+l/MbbZBT7lYhyqfuUECvw0FiA9WF2YFWAlyb3Chi3L72fAIvlgAACCCCAAAIIIIAAAgggUBYBP7zKvHifCmt/rnzXb41rc/uZ/1XZpi655tQvY3ezW5XfcKMsq0UxcR9WWSZtmo3sD7DO5wjhNC15/NACBFisDgQQQAABBBBAAAEEEEAAgbIJ5Fc9r8zrP9POk/5au477VNnaHWvIc1XY/azs7ffzZsLy606pRQKsKbHx0CQFCLAmCcbXEUAAAQQQQAABBBBAAAEEDi5Q2LRK6ad/qN3z/1k75n16Qhe0T8nS85TbdK808oISsaYpNcFD5RMgwCqfJS0dWoAAi9WBAAIIIIAAAggggAACCCAwbQF7xyqlH/229hz3LW0/+ctyrMreUeXZGeXW3ySzuLl0qftE3mY47UHSwEEFCLBYGNUQIMCqhjJ9IIAAAggggAACCCCAAAINLOAWcko//B2lYmdo41l/L7squ6I8FQdXqLj5Zo4S1nhtEWDVeAJC0j0BVkgmmmEigAACCCCAAAIIIIAAApUQcDMjSi+7U5mMo/WLrpQdb6tEN4dsM7v5IWnoCSWiCRmGWdW+6WxUgACLlVANAQKsaijTBwIIIIAAAggggAACCCDQgAKeXVD2pSXKbtykTed/T+muE6s+Ss/JKrf+RlmFzYpFElXvnw4JsFgD1REgwKqOM70ggAACCCCAAAIIIIAAAvUv4LnjxpB7d5nSbzytLYuu0Uj7UTUbnz34lgpb7lAiEpFpWjWrI6wdswMrrDNf3XETYFXXm94QQAABBBBAAAEEEEAAgboTcHMZFTe9peKWl8fVnt+xXQMf+kPtPOErtR2TW1B+w63yMqsU5yhh1eeCAKvq5KHs0Lhj6U+9UI6cQSOAAAIIIIAAAggggAACCBxRwHNdZZ69Wvn1L2pk3t/KiTSNPTN41IXKNvfJC8CuJzc/oNzqf1EsElOkwm9APCJayL6wL8Ba+OEL1N3RG7LRM9xqCRBgVUuafhBAAAEEEEAAAQQQQACBOhPww6v8u88qs/yn2nr2tRrsPTnQI7AHXlJx56+UsPIyZAS61kYqjgCrkWYzuGMx7vgxO7CCOz1UhgACCCCAAAIIIIAAAgjURsBzHeVXv6bsyzdrx8l/p10n/GZtCplEr25hQPn1NypimIoaI5N4kq9OR8B1HRXsgko7sDrZgTUdS549tAABFqsDAQQQQAABBBBAAAEEEEDgAAF712alHvtXDfV9U1vO+H25ZqQulAqb75Iz9LoSiRkyvHRd1FzvRRJg1fsM1kf9BFj1MU9UiQACCCCAAAIIIIAAAghUTcDNppR6+B800nSpNp3532RH9997VbUiptiRm9mm3HvfUywSVyQSnWIrPDYZAQKsyWjx3akKEGBNVY7nEEAAAQQQQAABBBBAAIEGFPDsoobu/F3l2i/QhguuUzHeVnejzK+7VV5hkxKWLYn3llV6AgmwKi1M+74AARbrAAEEEEAAAQQQQAABBBBAoCTg5rPKvPhj5Te8qo0fW6J0xzF1KeNmtyu/7mrFI5JpmnU5hnoqmgCrnmarfmslwKrfuaNyBBBAAAEEEEAAAQQQQKCsArmVzynz+i+0+dz/0PCM+WVtu6qNubbym+6Ql9+thDlc1a7D2BkBVhhnvfpjJsCqvjk9IoAAAggggAACCCCAAAI1FfDvuCpuek25Nx8fV0fBzmvgpP+h/uN+zT+wU9Map9u5Pfi6ClvuUiLWLNNwp9sczx9GgACL5VENAQKsaijTBwIIIIAAAggggAACCCAQEAGvWFDm5buU3bhDg8ddKjvWPFZZpvsiFZq66urS9kOxek5euVXflmVYikXqO4wLyNI5ZBkEWEGfocaoz7jjxw9wo11jzCWjQAABBBBAAAEEEEAAAQSOIOApv+oppZ+9XP1n36P+Y85vaLHizqdl9z+geCwh0+AurEpN9v4A60J1d/ZWqhvaDbkAAVbIFwDDRwABBBBAAAEEEEAAgZAIeK7y65Yr/cx31X/ad9U/74uNP3C3oOya/1DEHVQ0Emv88dZohGMB1kkXqruDAKtG09Dw3Rp33sMOrIafZQaIAAIIIIAAAggggAACoRcobH1P6Sf/Tamur2jDuX8jz7RCYVLY9jPZux9XU6IlFOOtxSD9AKtoF7TQD7DYgVWLKQhFnwRYoZhmBokAAggggAACCCCAAAJhFnBSQ0otu0kj3snadM7fyI7EQ8PhpN5TfuPNSsYSMlQIzbirOVACrGpqh7cvAqzwzj0jRwABBBBAAAEEEEAAgRAIuOkRjTzyD0rFLtbWBX+uXHNPCEa9f4heYVC59dcqqqwiJldAV2LyCbAqoUqbHxQgwGJNIIAAAggggAACCCCAAAINKuA5RWWevU7ZDa9p86IHNNJ1XIOO9PDDyq+/Tl56tRLxplCOv9KDJsCqtDDt+wIEWKwDBBBAAAEEEEAAAQQQQKBBBNzMyLiR5Ne8rMxbD2nTuYs10nNKg4xy8sOwB99UccstikeTMk3eRjh5wcM/QYBVblHaO5gAARbrAgEEEEAAAQQQQAABBBCocwGvWFDq2fvkbHtRbnrV2Gg8s0m7Tr9KO0/4rL9/oc5HOfXy3fRm5db9h2LRuCJWdOoN8eRBBQiwWBjVEDDuvOdBDgFXQ5o+EEAAAQQQQAABBBBAAIEKCHh2UZlX7lN29QsaOOmvZMfaxnrJdp2kXHO3XDNSgZ7rq8nce9fKKqxXNEQX2FdrhkYDrLwWnrSItxBWCz2E/RBghXDSGTICCCCAAAIIIIAAAgg0jkB2xdPKvPm4Np5/pdLtc+UZ4d1pdbhZLfY/Lbf/QcVj3INV7tVPgFVuUdo7mAABFusCAQQQQAABBBBAAAEEEKhHAc9Tfu0LSi27WjsXXqtdx15Uj6OoWs1ubrtya3+gZCwug5CvrO4EWGXlpLFDCBBgsTQQQAABBBBAAAEEEEAAgToUKO7coPSj39bg7K9r66l/JCeSqMNRVK9kz84ov/FmWYXNHCMsMzsBVplBae6gAgRYLAwEEEAAAQQQQAABBBBAoK4EPDmpYaUev1oj0dO17oJv1VX1tSrWcwsqbLxNyqxSPJasVRkN2S8BVkNOa+AGZdz5Ey5xD9ysUBACCCCAAAIIIIAAAgggcAgBJzWk9DPXKlXo1cZzvq1ishurCQoUtj0oe/eTSia7ZXj5CT7F144kMBZgncwl7key4venLmDcRYA1dT2eRAABBBBAAAEEEEAAAQSqKOC5rlLLrld2m6GNF/6zMi19Vey9/ruyB99SYfPNSsRbZHIPVtkm9P0B1ozO3rK1S0MIvF+AAIv1gAACCCCAAAIIIIAAAggEVKC4a4vk2GPVOYNbNfTy7dp55jXaM+usgFYd3LKc9Gbl1/1AsUSvIsoEt9A6q4wAq84mrE7LJcCq04mjbAQQQAABBBBAAAEEEGhcAc+2NfzQ38iz2+Sm144N1G76lPpP+KJ2H32xxA6iyS8At6jMiv+hSLxPMTMnec7k2+CJAwQIsFgU1RAgwKqGMn0ggAACCCCAAAIIIIAAAhMU8IoFZV6+X+n3ntT2825XIdE59mQx3qJitGmCLfG1gwnk1l4jw82UAizDK4BUBgECrDIg0sQRBYy7fvIz74jf4gsIIIAAAggggAACCCCAAAIVF/DsojJvPqbsike14cKblO48vuJ9hq2Dwo6n5Qy9pISVJ8Aq0+SPD7C4l61MrDTzAQECLJYEAggggAACCCCAAAIIIBAIAU/5je9q5NFva+fCq7Vr7icDUVWjFeEMr1J++0+VtIoEWGWaXAKsMkHSzGEFCLBYIAgggAACCCCAAAIIIIBAAASK21cp9fi/aM9Rf61t8y+TE4kHoKoGLMGzlXnnfyuenCXL2dWAA6z+kAiwqm8exh4JsMI464wZAQQQQAABBBBAAAEEAiXgFnIavOv3NHLU17VpwV/JtWKBqq+hivFc5dZdp4iKiri7G2potRoMAVat5MPVLwFWuOab0SKAAAIIIIAAAggggEDABJyRPRp57GqlvTZtOv9yFRIdAauwwcrxA6z1N8u0dytmZBpscLUZDgFWbdzD1qtx171c4h62SWe8CCCAAAIIIIAAAgggEBAB11Xq+TuUXb9ZG8//dy5tr8q0eCpsXipv5FXFo8mq9NjonYwFWPMXaUYnl7g3+nzXanwEWLWSp18EEEAAAQQQQAABBBAIlYBXzMvfbeXZ6bFxFzavUvqdZdp63lUa7j4xVB61G6ynwvafyx14VokYRzXLMQ8EWOVQpI0jCRBgHUmI30cAAQQQQAABBBBAAAEEpingpIeUfmaxivkeucPr9wdY7SdoaM6l2n3sr8szzGn2wuMTFSj2P6Zi/1NqihkTfYTvHUaAAIvlUQ0BAqxqKNMHAggggAACCCCAAAIIhFbAc2ylnrxShbUPa/NFT2t4xofHLDwZkkGIUu3FYe95VYWtS5SMJWTgP21+AqxpE9LABAQIsCaAxFcQQAABBBBAAAEEEEAAgakIeI6r3IonNPzGT7Tx7Fs11HuKTHmlpvw/R92iHCsylaZ5ZhoC9uCbKmy5Q4mm2TKdgWm0xKO+wP4A6yOa0dkLCgIVETDuvvfno//tyQcBBBBAAAEEEEAAAQQQQKBsAp7rKrvqFWWf+3eZfV/S7hP/QPlIk7a2HCPbjPh7r2R6zt6jg56ihifL8Pdk8Y9oZZuEQzTkpNYrt/EGJaLRkjmf6Qk4rqOindeZ8/0Ai0vcp6fJ04cSIMBibSCAAAIIIIAAAggggAACFRAo9m9Q6onvK+rMUOuMhTLed8dVId6nkaY52tUyVwOJbjlmQsVIk3KRJnmGUQpVInJLpwv9QItDhuWdICe9SfmN1yluSZZplbfxELZGgBXCSa/BkAmwaoBOlwgggAACCCCAAAIIINDYAvbgLo088k+KOl1q6V4g0zz0MUHPiMixmpWPtikda1EmMVv97fO1s6mvFF75V7sbhqeEU5Ab8XdusWNouqvHze1Wbv0VihpFRa3odJsL/fMEWKFfAlUBIMCqCjOdIIAAAggggAACCCCAQFgE3HxWgz/5U5kFU+0zPysrkpzy0IfaTtXmrjO1tfVoxfzL4GOtsuSpL7dDg03dpXu02J81eV43v0e5dZcrqryikdjkG+CJcQIEWCyIaggQYFVDmT4QQAABBBBAAAEEEEAgFAJesaDUC0tVWP2wOvo+o2i8vSzjtiPtysW7tbX1OKWbjtX21rmlo4YJryDHjCjuFeVyFG7C1gRYE6aa0BcJsCbExJemKUCANU1AHkcAAQQQQAABBBBAAIHwChR2bJKbGhwDKGxdreKae9Xe+ynFEj0VgXGNaCm02tm9SCt7z1cukhi7JytmuLIMtyL9NlKjBFjlnU0CrPJ60trBBQiwWBkIIIAAAggggAACCCCAwCQF3ExKw09dL2XS0sj6saet6BzFm2cr0XKUf3PVJFud/NftSKv2tM3XruajtLtlrnKRZuWtWOmNhhHDLR0x5HOggB9gGZsv14xkXp6icvcy5W1D2SJikxUgwJqsGN+fioBx930/57/RpiLHMwgggAACCCCAAAIIIBBKAc9xlH7+dhVWLVN770WyrKb9DoYpswaXgnuGpUK0Q7lYu7Z3na1N7SepYMVkGn4845Teashnv0DC3aOzo3fqwuPXyXENeXt51vdHtHGPpZfXH/rSfRwPFBgXYHX1QYRARQQIsCrCSqMIIIAAAggggAACCCDQkAKep8zyXyr3yt1q7/t02e64KreVa8a0s+tcvdtzrnLRNjmmpajhKmL4V74TZvXFUvqDE7+vZCRdes/jvr1yhmErX/R09wtJvbvdKve0NGx7BFgNO7WBGphx930P8d9egZoSikEAAQQQQAABBBBAAIFACniucmteU+qJ/6WWrk+oqf3DVTkmOB2L0hHD5mPU33G6djXNUTreNrorK+THC49J7tHvzbtcMTMvx9v/FkI/3LPMnAq2o5+/ntDLG9iJNZH1tz/A+qhmsANrImR8ZwoCBFhTQOMRBBBAAAEEEEAAAQQQCJ9AcfsGjTz2fxTT0WrrXVB3AI6V1M7uC/XarIvkGabaCyMyoqaK1v4Ap+4GNcWCT2zZod857moV3U7FzP2X8PvN+SFWxMrItj3d9UJS72xjJ9aRmAmwjiTE75dDgACrHIq0gQACCCCAAAIIIIAAAg0tYA/sUOqpK2VlHLX3LqrrsebjPdrctVD9bSdpKN6tFjulQrypdOG7Z1T+4vkg4B0uwBoLscysckVX97+a0PLN7MQ63LwRYAVhVTd+DcYSjhA2/iwzQgQQQAABBBBAAAEEEJiygOO/cfCX/0tmKqLWnvNkRRJTbisoD/o7sGyrSf2dZ+qtWRfLNiNqsnOKm7byDTC+Izmf0rZRvzX3euXtbsWs8Tuw9j1b2ollZmU7oyHWqxsJsQ7lui/AOms+RwiPtPb4/akLEGBN3Y4nEUAAAQQQQAABBBBAoMEF/DcOppZdqeKaF9TW+1lFE50NN2I72qHNM87Tpvb5Gk50l+7H8v+wPEeuYTbceP0Bnda+Tl859kali7OUjPQfcoz7QqxUztPSFxNa089xwoNhEWA15I9J4AZFgBW4KaEgBBBAAAEEEEAAAQQQqIWAV8iruGuT8hveGuve3fOKnO3r1NZ7qaKJrlqUVZU+/R1ZhWindnScqg3d5ygVb1eTk5MbjYy9oa8qhVSpk4WdK/WfjrlVI4U5aorsPGyv+y52zxUcPfBaQm9wnPAALwKsKi3ckHdDgBXyBcDwEUAAAQQQQAABBBBAQHKzKQ09er2c7U/LMPfvOrIix6mla4GiiY7QMDmRVq08+ova0nKsbCumVicjNxIpXfzeKJ99AZbrReR5Rx7Xvovds3lPdz2fZCfWBxYCAVaj/GQEexwEWMGeH6pDAAEEEEAAAQQQQACBCgu4+ZxSz92u4tqn1DHrM7KizeN6NIxwHhsbapmn9T0f0eb2E5V0cmovDCmXaFbRild4Rirf/Dldb+oLR9+hnN1ZuudqIp99O7EyOVcPvB7Xm1u4E2ufGwHWRFYQ35mugLHk/oe86TbC8wgggAACCCCAAAIIIIBAvQpk3nlRmWU/VMfMzyoaD89Oq4nMl2dYGm79sN486jMajrUr4RZlRYy6f1vhed2v6Tfm3C3bTU6EYew7o3diZZS3PS15IamV28MZbn4QbSzAOoVL3Ce1oPjypAQIsCbFxZcRQAABBBBAAAEEEECgYQRcT5l3Hld62ffU0vUZNbXPlRryxqfpz5hjNWtH15na0Hm6MrFOOdGYIoYrU/W5H+IjvU/qs7MfUMFpnTTOaIiVUyrn6p6XElq1kxCLAGvSy4gHpiBgLLn/F/X53zhTGCyPIIAAAggggAACCCCAAAL7BIrbV2roob9VsukcNXfMl2ESRBxpdRQirdrdfobenn2xClZUvbldyiVaZJv1c5zOkPTpWb/SOd2vyjJyRxryQX9/39sJC7aje19OannIjxOOBlg5nXXKxzSjq29KpjyEwJEECLCOJMTvI4AAAggggAACCCCAQGMJeJ7swZ0aeug7iimptp4LGmt8VRhNLj5Dbx/1OQ00H61mO6NiPFnajeXUQQjoh0+/dfTPdHr3Uyo6LVPWGr3YPa10TqXjhGv6wxuAEmBNeRnx4CQECLAmgcVXEUAAAQQQQAABBBBAoP4FnPSIRh77vrzdO9Xee9EBl7bX/wirMwLXjKu/fb5Wzvqk8pFk6W2FhVgy8PdjmYan/zJ3qY5re23Sd2B9UHb0YvessnlXD76e0Bub62cnWjlXCQFWOTVp61ACBFisDQQQQAABBBBAAAEEEGhcAW/8jaGHMZgAACAASURBVCme52rkyetkr3tD7TN/TZFoU+OOvUojsyNtenvuZdraPEdNdk6tbkrDyc4q9T75bizD1V+efLkMGYpZg5Nv4ANP7NuJlSt4uuv5Jq0O4Z1YBFjTXkY0MAEBAqwJIPEVBBBAAAEEEEAAAQQQqD8Be3CXCltXyNmzaqx4NzMiZ+Nrau35pGLJGfU3qABXvL3rHK3p+6hykSZFDU9+UGRb0cBVbBmO/vbUf5brxad8B9YHB7XvTiz/YvelL4bvOCEBVuCWeUMWZCzlEveGnFgGhQACCCCAAAIIIIBAmAWc9LAGH/wreemUrMjR4yjaehbIijTzxsGyLxBDtpXQxt5PaGXfeTI9V80qyLGCdazuqPiw/vTkf1TBaZPK+BbF0RAro0ze1S3LmrVpj1l24aA2uC/AOptL3IM6RQ1RFwFWQ0wjg0AAAQQQQAABBBBAAIF9Ap5d1Mgz16mwdpna+z6naLwdnCoKeEZUQ60f0jszP66Bppmlu7G8iCXPCEagc37nBl065xZ5pUOEblll9oVYO4ekpS8ltXUoGGMu6yAP0hgBVqWFad8XIMBiHSCAAAIIIIAAAggggEDDCPjhVeqNJ5R741a1z/g1xZI9DTO2ehtIMdKmrd1nacXMj5feUBgx/WOF4+8kq8WYfnPWKzqr9x45bqJC3XuS5+/E8rTkxSat3934IRYBVoWWEs2OEyDAYkEggAACCCCAAAIIIIBAYwh4nnIb3tTIw3+n5q5PqKn9BI4JBmBmC9EZevm4r2ow2aOoKUUMR0YN6/rzE+9UT9Pyab+B8HBD8Hd2RayMdo8Yuuv5xt+JRYBVwwUdoq6Npff/svYReIjAGSoCCCCAAAIIIIAAAghURiC/ZaVST1yuROwENfvhVUCOrFVmtPXVatFq1qaej2htz7mli91jhlu65L3anybT1n+b/+9KWEOyK7YDa3RUfohlmVntGpbufSWpDQONuxNrfIA1s9rTSn8hETCW/pQAKyRzzTARQAABBBBAAAEEEGhYATef066bvqB48wK1932sYcdZ7wMrRDv08rzf057EDEUNVzHDqeqQOiJ5/eWp/1OOF5fjxive976dWKmcpx8906StQ1bF+6xFB6UAq5jT2ad+TDO6CLBqMQdh6JMAKwyzzBgRQAABBBBAAAEEEGhgAWd4QMNPXCMNbFJb7ydkRZINPNr6H1ox2qkVsy/RQMtc5aPNihpO1e7G+lDLTv2/J/xb6fig60WrglkKscyc9qRcPbg8qZXbGy/EIsCqylIKfScEWKFfAgAggAACCCCAAAIIIFC/Am4+q5Hn71ZxzdPqmv3rMq3K76qpX63gVO4ZEY00HaMXj/uqCpGkIlXajfXxnld1yVF3yHab5HqRqoGMvp0wq4Lt6CevJPXmlur1XY1BEmBVQ5k+CLBYAwgggAACCCCAAAIIIFAXAvaefuU3r1B+w2vj6935tlp7LlI03lkX46DI/QL+bqx3Z1+qLW0nyLOiipv+Be+VuabZb/fSWU/po30Pqui0yKvyVfKjIVZGedvV0peSemdb44RYBFj8VFdDgACrGsr0gQACCCCAAAIIIIAAAtMScNLDGn7se9KQrVisZVxbieZ5o8cGjVq+225awwv1w/5urP72U7Rq9iUaibWWjhNW4m6shGnrd+beqXmtb6voNtXE3A+x/Ivdi46jh5Yn9OK66hxjrPRgCbAqLUz7vgABFusAAQQQQAABBBBAAAEEgi3geRp6crHstW+qY+bFsqK1CR+CjVT/1TlmXG8d8xVtaz9BhmEoVtqNVb5PRzStr8+7WR3xbXLcWPkankJLUTOtouPq7hcbYycWAdYUFgGPTFqAAGvSZDyAAAIIIIAAAggggAAC1RLwHEeZt55S7qVr1DLjU4o38YazatnXoh/XjKu/41St6vu4RuLtihlu6X6scnzmNW/R1467VY4XU9RMlaPJabWx706sh9+K6fn3ahuoTWsgkgiwpivI8xMRIMCaiBLfQQABBBBAAAEEEEAAgeoLeK7Srz+u9IvfV0vXJWpqn1f9GuixJgKFaIdWzfmCNrSfUAqw4oYz7ToumrFcl8y5TQWnTf6bAWv/8RQx8vJU0E9fT+qlOj5OSIBV+9UUhgoIsMIwy4wRAQQQQAABBBBAAIE6FMhvWqmRJ36ouDVbrTMW1uEIKHm6Alt6Pqp13WdpONE17d1Y3zjufnXGt6op2j/dssr6vB9iuV5B97yc0JqdEaUL5Tw4WdZSD9nY/gDrIs3o6qtOp/QSOgHjxz99uDKveAgdJQNGAAEEEEAAAQQQQACBcgkUB3dp6Gd/rZhxjFq6F8gwzHI1TTt1JWAoF+vU2qM+pw3tJ8qUvxvLlWFM/h9jv3X63ylndypm1f744AenwDLyMlTQy+tieuituPJ2XU3S+44QXqSeLo751tfs1U+1BFj1M1dUigACCCCAAAIIIIBAKASc1G4N/vxvpVRW7X2fkRVtDsW4GeThBAzt7DpLK2ZerEystfSWwsgkQqyjE0P645P+UbablOsF881/ETMnzy3qxbUxPfxOfYVY79+BRYDFT3KlBAiwKiVLuwgggAACCCCAAAIIIHBEAbeQP+A7Q08slrvlLbX3foo3Dh5RMFxfSCeP0oYZ52lT52mSaSpquDInEGT9xqzndEHfT1R0m+R5VmDR/J1YlpnX6+tj+tmb8bo5TkiAFdgl1VCFGT9+gCOEDTWjDAYBBBBAAAEEEEAAgToRcDIppZf/QtnXrhtXsWG1qWPmbyga76qTkVBmtQV2dl+gV+Z8Wp5h6qj0Nu1p7TlsCb919CM6o/sR2U6zPAX7jinLLMgycnp5bVz3vRGXO/nTktWejv1HCE/jCGHV8UPUIQFWiCaboU5PwD9n3xpJyTRcDRdb5XrcwzA9UZ5GAAEEEEAAgTAL2IP9GnrsSmnPJiVa5o+jiDcfIyuakAIeNIR5/oIw9ly8R+t6P6b3uhco4RZkmoYOdlVaa6Sgr8+7SjMSO0pHCOvhYxpFWWZO726N6Jdvx7VjONj/7DG2A4sAqx6WV93WSIBVt1NH4dUWaI8N6vSuZYoYOeWdFm3PfFjvpeZWuwz6QwABBBBAAAEEGkJg6OkfqbDyKXXO8o8JtjTEmBhE9QVcI6qRluP1xjG/qVS0RZZcxUxnXPR5VHJQ/8/x16gpMiLHjVW/yCn2aPr3fJlpbd0T0Q3PJJUN8NsJCbCmOMk8NikBAqxJcfHlMAt0xAa0sPvJ0g4sQ7YMw1Wq2KN1IydrV75PthsJMw9jRwABBBBAAAEEJiTg2QWNvHSv8m/ep7beTyuWnDGh5/gSAocTKMS6tbbvYm1vO0GW58mMGCpGYqUg6/SOVfryMbfKkyWvzk5R+CGWZWY1nJFuXtYU2J1YBFj8fFZDgACrGsr00RAC+wIs+S/v9cxSgGUZRUmuBgt92pU7Vmm7TQVn9N/qZJ2EioRaDTH3DAIBBBBAAAEEyiTgeUq/ca9Sz1+r1u5LlWg9XsbBznyVqTuaCZeAa8aUTs7SphkXal3nfD+uUouT1iVHv6hFfQ+q6Nbn2ywNw1HUzGh3ytDtzzdp+1DwjhMSYIXrZ61WoyXAqpU8/dadwPgAa/+bS0bPp4++PceQf8Pi6C2LttukiJlRwWmX7cXleFFlim2yvZhyjn+nw8Q/CSs39mV/p1fEtMc9XHSjco7wNhXHixx2l1jejZWCOc/zNDDoyUh266CXCEy8bL6JAAIIIIAAAgjsF/A85bet09DD/6xkYr5aOj+EDgIVE0g3HaNXj/2yhuOd+rPjl+j49hfr5v6rg6H4/5wRMbMq2I4efDWp17dG5LgV45t0wwRYkybjgSkIGD9+4JE6eKfBFEbGIwiUWWA0wHpCozuwxr96txRclY4Wvv/Hyf97/+PJKP3FvnDLf+/J5H7sjvSmlH39HHnIh+l37+uHh3an9MgNjyh25jfVdNKvEWIdGZVvIIAAAggggMAEBIq7d2jol/+kqJNUW88i7f0fSBN4kq8gMDWBfKxLm7vP1vlzV2vhycvletHSHViegreDaSIjNOQqYuaULTh69O2EnlsXnchjVfnO/gDr4+rpmlmVPukkfAIEWOGbc0Y8RYHDBVhTbDKYj3meXnv8La1+6kl1/Pr3FD/6lGDWSVUIIIAAAgggUDcCTnpYgw/9vYwRQ+29i2RG4nVTO4XWu4ChSNzT0acUdOKC0VMNjn86wq3fNRg10/4otPT5Zr2+dfy/WK/VbBFg1Uo+XP0SYIVrvhntNARCE2D5e8VcTy8/9Lw2rhxR2yf/QmZ8/H0BVlunDDMY/89yGlPKowgggAACCCBQAQHPseWMDI5reeT5a+Vt3aLWno8oEuONgxVgp8kJCDS1uzrqwwUddaKtaNwY3Y3lRfzzEhN4Okhf8Y8T5mUaBT2+IqEnV8VUcGpbHwFWbf3D0rtxD0cIwzLXjHOaAn6AteAQRwin2XQgH89l8nrn2RXasma3ciN7xtWYOPlral1wsYxI/byGOJDIFIUAAggggECDCRQHdmjkhaWyd704bmRmoVUtM85WLMEbBxtsyutuOP47A5raXB2/sKCZcwul6zL83Vj+8cL6+niyjII8L6/3dkZ187PJmpa/L8A65zSOENZ0Ihq8cwKsBp9ghlc+gbAFWL5csVDUwI5hFfP+2xb3f1659+eKnvzbal74n2RYkfIh0xICCCCAAAII1K2Af0xwz4N/KaXzSrafJ8PYv1s73jRDhsH/ZqjbyW3Qwmd/qKi5pxbU1OrItiMyonF5R3gxUtAoLLMgy8hr5baIfvxyQplCbXaTEWAFbWU0Zj3GPQ9yiXtjTi2jKrdAKcDqeqL0b2k+eIl7ufsKensb3t6gV3/6sKLzPqPWC/9ARqTe/o1V0IWpDwEEEEAAgfoScAt5DS+7Q4XVj6tj1mcViY2/fqC+RkO1YRKINXmaMcfW7BOL6ux1SgFWJh1VNBmtm/cM+G9FN+XvxDL1yFsJbRqs/iX1YwHW6ezACtPPT7XHSoBVbXH6q1sBAqzxU/fWspVa+eTLav343yh5/IK6nVcKRwABBBBAAIFpCriu0itfUPrp76ut7zOKJTkmOE1RHq+BgH+0sG+erZPOzioS82QXDWWzCSXb/J2DtdnVNBkGU44sM6ui7enGp5q1aY85yfeeT6a3A79LgDU9P56emAAB1sSc+BYCIsA6cBGsWLZCq1/bquQ5f6TEsSezShBAAAEEEEAgbAKeq/Tbjyr93M1q6VykROucuviH/bBNE+OduEA0KfUdW9TM44vq6rPlyirdjzV62Xv1dzZNvHLJNBxZRk6DaU+/fDOh5Vuqd2yXAGsyM8V3pypAgDVVOZ4LnQAB1kH+TYvt6Lmlv9S2tf1q/+S3lJg7P3TrggEjgAACCCAQZoHinq0aWPINJds+rpauDxNehXkxNNLYDcmyPHUf7er403Nq63JK4ZUfZDlePOAj9d9QmJXr2HpiZUKPrazOS5cIsAK+LBqkPAKsBplIhlF5AQKsgxvnswU9d/fPNTDSpo5L/qci7RwbqPxqpAcEEEAAAQRqLOB5KuzepsFffEcxL67Wngtk+Gew+CDQgAI9c4uaNddWe6+jRLMn14vLtv0jepZMK3jHCw2/MiMnx7H1yIq43tgY1Ui+snUSYDXgwg/gkIx7HvyVF8C6KAmBwAmMBliPc4n7QWamkCvopfsf1Y6tjjp/83uyki2Bmz8KQgABBBBAAIHyCRQHd2n4ySvk9W9Tx+xPyrSCviulfGOnpXAK+PlsU5urnmNtzZ2fl/8OIz/AKhSjsmLBfKGR/3ZCwyto5daoHngjrqFc5UKs/QHWxerpmhnORcKoKy5AgFVxYjpoFAECrMPP5NDulJbdfr/y1iy1XfTfZUQTYw8YkZispjbVzatcGmXRMg4EEEAAAQSmK+B58uyi3GxKnueMtZZ69V7Za19Rx1GXyDSD+Q/v0x06zyNwKIF4s6ej5xc0+/iionFXhmUpn4vLivm7EIO1E9EyCvKDrPd2mFrycpOGKxRiEWDx81INAQKsaijTR0MIEGAdeRr37BjS6w8/p8EdOdnF/Zs7zWSrmuZ/Uc2nX3zkRvgGAggggAACCARGoLBrm9IvXq/irk3ynOJYXTGrV8m2kxRLdgemVgpBoJoChiE1dbhqbnfUe4yjmXOL8ndpuf5l70a09OegfEzDLh0p7B+SHlye1JqdVtlLI8AqOykNHkSAAItlgcAEBQiwJgblOK6K+f3/A9d/avULy/XO48+p49evVOJY/4JXPggggAACCCAQdAEnk9KeB/9KRiqh1p4zZVr7L4PmyGDQZ4/6qi2QbPc0b2FefUcXZVpe6eRBLhuVFd9/KqHaNb2/P8NwFTVSKjqGHlme1LL3/Lcqlu9DgFU+S1o6tAABFqvj/7J3H2CS3Od9539VnabDzOzM5oxEBBEEQAoiKQKkSEQCFEVKFKU7WzpJJ58fny3fHc+nx36scD49tuXHj0/SPRYlypZtyRIlUpCQFxmbc8LmiA3YgM07qXumQ4V7qmcX2MUudrt7uqsrfOd58EiPUFX/9/28tYDwm6p/IdCgAAFWg1DXOcyq2dq1dIPe3XZM0x7/baXn3d36xTgTAQQQQAABBDou4FqWRtf+uWoHlqt31hNKZfo7viYLIBAFgWRGmrHA0vw7quqfaSuRMupfL/S+Yuh6T2epc/tQ3cyvvrm7WZapmlbuy2jVwbRK1fbUQ4B1M33+fjsECLDaocg1YiFAgDW1MTu2o02vrNXxXYc1+K3/pGTf4NQuyNkIIIAAAggg0BEBb8+r4RU/kHXkTfXNelSpzEBH1uGiCERZIJl2lUq7mr7Q1h0PlJXuceubvnth1mSg1Z7gqHlD7wuFVRmq6MTFpL63PNf8Ja5zBgFWWxi5yE0ECLC4RRBoUIAAq0GoGxw2USprw7PLdO690xr81h8rNcAXSqauyhUQQAABBBBoo4DrqrhjqUob/lj5aT+uXP8n2nhxLoVAPAXSOVfz7qhp+lxL+WmOMl6YZXhPYyXluIn601l+/1zeF2ukJP1wY1bHLnp1tP5DgNW6HWc2LmA8u+Stqdynja/EkQiEXMALsO4fWCZvd0bvXzT8tCZQHC5p3bMrNW7eqYEn/qmMRHA2uGytI85CAAEEEEAgOgKV00c08vrvKpu5S7n+O/iCcHRGSycBEDATUq5/cuP32bdamrO4dunVQvNSmOXvk1mGHCXNcY2MS2sPZLTmUOtfFPUCrGqtrM/e9xXNnM4vqQNwu0WyBAKsSI6VpjohQIDVPtXS6LjW/OANjace1ODjvyojlWnfxbkSAggggAACCLQkULtwQud/8CvKFO5V36wvyTD4hV1LkJyEQIMCiaSrOXfUdPt9FXm/001lXDlKyHa8jd+9UMuP1wxdJY0JeU9kLdvTo2X707KdBhu44jACrObNOKN5AePZJW/zBFbzbpwRQ4HJAGspT2C1afYn9x/V+h++ovSd31Lfw78sM/Xhl43atASXQQABBBBAAIEGBayR8xp67Xdklpx6eGV6O1HzgwACvgh4m6vnB2zNmG9r9m2WCtNsmQnj0qbv3muGnd78fXJfLNepavPRlNYdzOh8qbnw7OoAa64vbiwSPwECrPjNnI5bFCDAahHu405zpQtnhvT2H39fuQf/ibKf+MIHR5rJlJKFaby20GZyLocAAggggIBTrcgqjVwDMfzGH8odOqTpi39WhuH/fjxMBgEEJgW81wyz/a5uva+imfNq9aeyvCexHDctRym5buf+fCaMmkyjrKGiob9cm9OZscbXIsDiDvZDgADLD2XWiIQAAVZnxnjqyBntWb5JE6NjHyzgmgOyknPU99AvKT37ls4szFURQAABBBCImUDl1EEVtz4v68SWazpPZ+9Urv92JTPTYqZCuwgEV8B7EHLmopoG59jqm2Er3+dIpll/MstRUnK9Z7caD5ka6dSQLblljVdcvbKjR/tPJ1Wzb34mAdbNjThi6gIEWFM35AoxESDA6sygXddVZbwqq2p9GGA5jnau3KFT71U0+NRvKjltZmcW56oIIIAAAgjERKB6/pSGlvwzpdyZKkz/3DVdm4mMDJMPq8TkdqDNkAl4D0Wms66yBaf+iuG826rydt/wnsyyrORkqKX2bcfhuo7klJVM2PXN3d/am5Z1k32xCLBCdlOFtFwCrJAOjrL9FyDA8te8VqnpjT/6K1VSd2v6139TZk/O3wJYDQEEEEAAgYgIVM8e0dBL/5eS5kz1zXpEXljFDwIIhFfAC7RmLLI1a1FNAzOteriVTKm+V5btekFWe57MSpplmarp0Omknn2nR8PjH78vFgFWeO+nMFVOgBWmaVFrVwUIsPznHz4zpHU/XKJq4X71P/IdJbJ5/4tgRQQQQAABBEIs4JRLuvDCd5SY6FFhxkNKJL2vm/GDAAJREejpdZXvdzQ419KMBZZ6p9n11wpdN1H/n96rht7/3uqP69SUTpR1dtTUy9t6dPj89a9FgNWqMOc1I0CA1YwWx8ZagACrO+MvjU7o1T/4b+q555vqe/gfyvB2tuQHAQQQQAABBG4qYE+M6ex//abSubvUP/tRXhG8qRgHIBB+gd4ZrhbcXdWcxVUlEq7q32QwEvVN4G3Xe024ua8LeiLe81zF8aKyGemFTTntOu1d72orAqzw3zth6IAAKwxTosZACBBgdW8Mpw6f1ubnXpex6HH1/vj/LDPFqw/dmwYrI4AAAgiEQcAaPaOhV39bRtFR3+xHlUhmw1A2NSKAQJsEUlkpW7A1baalvplu/X+mexwlUl74lKw/neXtn2UmGgu0bNtRJlmR49S08XBGr+zMyL0ixCLAatPguMwNBQiwuEEQaFCAAKtBqA4c5v3L8dC2w3rnhVeU//F/od4HHu3AKlwSAQQQQACBaAg41bLO/cXfU0KzNW3uYzx5FY2x0gUCLQt4LzAkkq68p7MWf7Ki6XNr3r7vcr2vGBoJVatpmclGPuLgKmHUZKqssyMJ/e2mrN4fnfwKIgFWy+PhxCYECLCawOLQeAt8GGB5v7Vo7+dq4y3bePf7Nx3SvnUHlP3sP1b21vsaP5EjEUAAAQQQiImANXZRQy/9uowJo75heyLF/pExGT1tItCwQDovzVpcU/90W4UBR/leWwnvq4Zuqr5nluN4e2gZMszrP51lGpYSRkVj465e3dmjHSeSVwRYj2jm9DkN18KBCDQjYDz3ytKPvL3azOkci0B8BPpTF3T/wNJL75CzD1O3Jr/j7Y3av+FdZe/+eZm5gQ/KSA7OVc/822R63xTmBwEEEEAAgZgIOLWqxg/tlDM+Wu+4emKT3PMn1D/zC7w2GJN7gDYRmIpAOueqJ+8oP+BowV3VeqjlerteuUb9v3ssKyUjce3TWYYcJcyybMvSliNpvb03qQvFsj53vxdgzZ1KSZyLwMcKEGBxcyDQoMC01AXdR4DVoFbnDqtVatq+bIdO79151SJu/jOyrHMafOp3lMhP61wBXBkBBBBAAIErBNxaVdboRY3tWVH/vyZzfZJhyMzk5L2j4+3baCRSMpJJGam0Ej2Te1EZiY95Msp718e43lMP3tMQV/8CzSoNafiN35UzfEyGMfn3UtlPqzDwCSVSOeaEAAIINC2QKbhacE9VM+bWlMm6SmZcef/o8TaBd5SSvNcO6xvBe3+5ShoVmUZVx88b+rM1hu68gwCraXROaFiAAKthKg6MuwABVrDugMpE9aqCisMlrXvmNTkDD2vwyV8LVrFUgwACCCAQWYHS3tUqvbNEieqETDMlx67Ve/U2OpZry3Eu/fvKqcl1a3Lss/W/b+YWX9fESPVI5nX2ojFMGemPfMSkVlOinFZh8FMyE5N/zzCTMuqfHeMHAQQQaF0gkXKVzkm9g5Z6Bx1Nn2+pd5rtPZQlt74JfKL+uqHrJjT5SuGEzg4b2nz+EWULPIHVujxn3kiAAIv7A4EGBQiwGoTq4mEX3r+o1d9/Ucacn9Tgk7/axUpYGgEEEEAgDgLjh3dr5LV/ocL0R5Xru7WBlj/cucO2K9c93rUtua59zd9zXVfOR84xE2mlez58nb6BAjgEAQQQaE3AkHp6HS26t6bBWTX1Dkz+c8r7muHk3lmmTFW1Z+QRnS0TYLWGzFk3EyDAupkQfx+BSwIEWOG4FU4cfF/r/vpl5R/8R+p78OvhKJoqEUAAAQRCJzC+f61GV/2Rcvn7leu//YNX+ELXCAUjgAACLQh4e2fVN4Kfadf/yuYdjZdM7S8+ohGTAKsFUk5pQIAAqwEkDkHAEyDACsd94P2G+t3Ne7Xt1TXqf+LfKXfbveEonCoRQAABBEIjMH54l0aX/nvle39U2d5FvLIXmslRKAIItFvAe2M5nXWVLVhy7YqKtzwizSTAarcz15sUIMDiTkCgQQECrAahAnCY4zjavWKz9i5bp4Gv/76yi+77mA1xA1AsJSCAAAIIhEbAdRxNvLtRI2/+a/X0fV69g/fU95ziBwEEEIi9gG3LrUwo8fAjMmYTYMX+fugQAAFWh2C5bPQECLDCNVPbsrX1zY06tvOopn31Xysz545wNUC1CCCAAAKBExg/uEljq/9E6eStKgzcKW8PKn4QQAABBCQRYHEb+CBAgOUDMktEQ4AAK5xzXPPMUp3ctUsz/ofvKz04++omrvuZ8nD2SdUIIIAAAm0UcD/cbN27qvd6+sTh7Rp5/bfqT171zfhUGxfjUggggEAEBAiwIjDE4LdAgBX8GVFhQAQIsAIyiCbLKA6XtOmllRoayimz4K6rzu75xNNKT58rI8nrH02ycjgCCCAQWYHKqaOqnNgkt3Lxgx7dWlXlQ8uVyXxahYG7ePIqstOnMQQQaFmAAKtlOk5sXMB47pVlV/+KqfFzORKBWAlMBlhvS0ZCjpuIVe9hb9au2Tp1+H3tXL7j2dyKwQAAIABJREFUqlaKZ06q96HvqPCpx8PeIvUjgAACCLRBYOLYPo28+hsyjJmSO/mJeO/HTOTUU7hF2b7FbNjeBmcugQACERT4IMB6lD2wIjjeoLRkPPcqAVZQhkEdwRb4IMASAVawJ9V4de/tOqwtL7yh/EP/TLm7H5GRIJhsXI8jEUAAgWgJTBzaopFlv6906nb1Dv6IzEQmWg3SDQIIINBJgcsB1hcJsDrJHPdrE2DF/Q6g/4YFCLAapgrNgbblaM/aXdq3fK36vvgd5e99MjS1UygCCCCAQPsEJt7br9G3f1fpxC0qDH5SZiLVvotzJQQQQCAOAgRYcZhy13skwOr6CCggLAIZs6L7p72tbHJMtstvZcMyt0bq3Lhkg07sG9bgT/0/Sk6b1cgpHIMAAgggEAUBb3P2I9s1/Oq/VKbwY+qdfq9Mk/AqCqOlBwQQ8FmAAMtn8HguR4AVz7nTdQsC41aPFmcP6lODy2S5efbBasEwqKdYVUvbl27RkW3va+Brv6PMnMVBLZW6EEAAAQTaKOCFV6MrvquUMU+FgXuUSPILqjbycikEEIiTAAFWnKbdtV6N59kDq2v4LBwugeFqQesv3K7f+uTvK5c8VQ+x+ImOQK1q6YXf/Z6Mvrs186f/jRL5/ug0RycIIIAAAtcIjB/dq+GXv6NM7+fVP/N+SQZKCCCAAAKtClwRYJmz57Z6Fc5D4IYCBFjcIAg0KHA5wLqn94T+/q3fk2m4st10g2dzWBgExscmtOavX9J48h4NPPodJXKFMJRNjQgggAACTQqMH96i0RV/pJS5UIWBu5VI9jR5BQ5HAAEEELhKgACLG8IHAQIsH5BZIhoClwOspGHrpxc8qwenr1PN7ZXrmtFokC7qAsWhMS3907+RZnxGA0/+hswUISW3BgIIIBAlgfGj+zTyxr9SJnO3eqd/SobJF2ijNF96QQCBLgkQYHUJPl7LEmDFa950OwWBywGWIVez0uP6X+/8PWUSY7LcHK8dTME1iKeeOX5BG59ZInfG52QW5l9VopnuUc+CTyg9+x4ZScKtIM6PmhBAAAHXtjXx3h5Vzx6QW5v4AMS1qirv/ztlsg+qt/61Qf45zt2CAAIItEWAAKstjFzkxgIEWNwhCDQocGWAlTBcfbr/iH72lu9e2tA92eBVOCwsAkNnhnXy4DFVSuVrSj68YZuy9/ycBr78y2FphzoRQACB2Ai4tqXhtc+rvO9lpVJzZBpXPymd6ulXJncr4VVs7ggaRQABXwQIsHxhjvsixvOvLnfjjkD/CDQiMFzN1zdx957A8gIs7+fnFr6m+wbfVs3p5SmsRhAjcsyJ/ce0+bnX5PQ+pMHHflWpQTaqjMhoaQMBBEIu4IVXo5teVnHL95Tvf1j5gR+RYbA5e8jHSvkIIBAGgXqAVVbii4+KTdzDMLBw1kiAFc65UXUXBK4XYM3tuahfuu2PlU+NyXJ4lbALY+nKkq7ryntCa9sbazU8JPV/6dfVs+CurtTCoggggAACkwL18Grjyxrf8YxyvZ9Srv8TMj7y9BVWCCCAAAIdEiDA6hAsl71SgACL+wGBBgWuF2B5p35+4Ii+vui7st0sXyVs0DIqh9mWo00vrdCx7XvU98V/pd77Ho5Ka/SBAAIIhErAdWyNrH1epW1/osLgI8pPu5Mno0M1QYpFAIHQCxBghX6EYWjAeP41XiEMw6CosfsC9QDr/NWvEF6u6qcXvK7PDK6oB1iu+JpR96flXwW1qqWdb67RiYMXZM77gvo+/4tK5Ar+FcBKCCCAQMwFvCevirtWqrjxz5TN3qX8wN08eRXze4L2EUCgCwJegFUuK/ElXiHsgn5sliTAis2oaXSqAjcKsPqSE/qfbv0zzckdkeUU5Ir9NqbqHabzXcfV6aNn6vtiWT2LNO2x31B6+pwwtUCtCCCAQCgF6q8Nbl+l8U3fU673M5deG+TfwaEcJkUjgEC4BQiwwj2/kFRPgBWSQVFm9wVuFGB51d3Te0o/f8v3ZBqWbLen+wVTge8CIxeKWv+DF1SszdX0J/+5koNzZSR4Is/3QbAgAgjEQsB7bbC4c6XG1v2hcoVPKz9wD09exWLyNIkAAoEUIMAK5FiiVhQBVtQmSj8dE7hZgOUt/PScTXpo9t/IcvNyXIKLjg0jwBcul8ra8fYmHdt9Wvn7v67eH/22jEQywBVTGgIIIBA+AdeyNLZztUpb/ptyuR9Rrv8OwqvwjZGKEUAgSgIEWFGaZmB7MV5gD6zADofCgiXgBVjrPmYPrMuVpk1Lv3LrD7SwsEM1pzdYDVCNrwKHdx/XO8++JPU+KCORv2ZtMz9NhU/9hLKLPynDNH2tjcUQQACBsAg4taomju9VcesbcmuVD8q2i/uk8lnlBr6swsDdksFrg2GZKXUigEBEBS4FWEn2wIrogIPRFgFWMOZAFSEQaCTA8tq4LX9Kv3jbd5U0HFluNgSdUWKnBM6fvKhT+9+VXates0R1oqqTew4qfc+31feZbyuR7+tUGVwXAQQQCKWAPVHU0IrvqnZkk9K5RTI+ElJlCvcqlenjyatQTpeiEUAgcgIEWJEbaRAbIsAK4lSoKZACjQZYhlx9uv+YvnXLf5TtZutfJuQnvgKu6163+frG7++d1eo/f0bphY9p1jf/ZXyR6BwBBBD4iIBTLevi6/9OlaNr1T/3Z5XJzbiOEU9dceMggAACgREgwArMKKJciPHCayuu/19XUe6a3hBoQWAywLqt/n3BhHHzPzZ/b/Hzuqd/vWxl5LIfVgvi8Thl5NyQNvzdmxobn6tpX/pF9Sx+gKcJ4jF6ukQAgY8RsMvjGl71PVUPrlTvrK8pk5uOFQIIIIBA0AU+CLAekzl7btCrpb6QChBghXRwlO2/QLMBVn9qXL98259oZs/7spy8XLHPkf9TC8eK42MT2rd+tw5v3qPCj/1v6nvgkXAUTpUIIIBAmwWcakUX3/i3qh7bqr5ZTyuTm93mFbgcAggggEBHBAiwOsLKRa8WIMDijkCgQYFmAyzvsgt7RvUrd/yeUomKLIf9sBqkju1hu5Zv0YE1m5W5939R/4Nfk5nhnontzUDjCMRQwHUcjaz9zxrf/oL6Zn/zY14bjCEMLSOAAAJhECDACsOUQl8jAVboR0gDfgm0EmB5tT0w7V19Y+FfKmFY7Ifl17BCuo63L9bx/Se0a9lW1VLz1PfQrykza35Iu6FsBBBAoHEB17Y0vPwPVD6wVr0zn1AmN6vxkzkSAQQQQKD7AgRY3Z9BDCogwIrBkGmxPQKtBlje1wi/vfAZ3TuwUZabl+Mm21MQV4mswPhYWau+/6JGz5c0/af+P/XMuy2yvdIYAggg4LqOhpf+vkq7X9K0eb+gTG4QFAQQQACBsAkQYIVtYqGs13jhdTZxD+XkKNp3gXqAda7xTdyvLHBaqqxfuvXPNTN7SJaTYz8s36cXvgUr5areWbJc7x8uqfcL/0SZhT8iI3Ft+GkmUzKSqfA1SMUIIBA7Adex5e1x9dGfsU1/oYmdr6t35lNs2B67u4KGEUAgMgJXBlhz2MQ9MnMNWCMEWAEbCOUEV2AqAZbXVW9yQr925x8pnzqrmpMPbqNUFhgB27K1f9N+vbfrlMaHL0jGtZ+MT07/vLJ3/LgKP/LZwNRNIQgggMBHBazRIZUOvKPxnf/5GhynOKz+Od6eVzOBQwABBBAIqwABVlgnF6q6CbBCNS6K7abAVAMsr/ZP9h/Utxf9mUxDst1MN9th7RAJXDg9ogvvX1BtonpN1aXhMb2/9z2l7/op9T7wk0rkCiHqjFIRQCDyAq6r2uiQRtd/X9bRHUrlbr2m5Xz/HTKv84Rp5G1oEAEEEIiSAAFWlKYZ2F4IsAI7GgoLmkA7Aqy0aesb85bpgemvyXKzclxe/QranMNWj2M7OvnuSW1b8rbs3k9q4Cv/p1IDPMUQtjlSLwJRFagNX9Dwyu/KPnVcfTO/oFSmP6qt0hcCCCAQbwECrHjP36fuCbB8gmaZ8Au0I8C6rPCP7/jvmpvfJav+KuG1r4WFX4sO/BYojU7orT/+S1nmAs36+f+gRK7vuq8c+l0X6yGAQEwFXFdWaVTDq/+rrKO71T/ny0qmcjHFoG0EEEAgBgIEWDEYcvdbJMDq/gyoICQC7QywelMlfXvhC7qtd5ssJytXiZAoUGaQBSaKZW17c6NOHhhR72e+qcJ9T7PBe5AHRm0IRFXAlWoj5zWy+j/Jfv9o/cmrZLovqt3SFwIIIICAJ0CAxX3gg4Dx4usrXR/WYQkEQi8wVP8K4a3156USxtT/2MxMj+v/uOe35LhJWS6buof+BglIA94rhQe3H9H2F19Vz+0/r5lP/6OAVEYZCCAQFwGrOKKh5X+o2vFDmjbXe/KKf8fFZfb0iQACMRa4FGClvvSYzDnzYgxB650UIMDqpC7XjpRAuwMsD+fOwml9a9F/US5ZklXf1J3XCSN103SxmeN7DmvXsk2qpD6lga/8Q6UHZ3exGpZGAIG4CFilMQ2v+lNZx/aob9YXCa/iMnj6RAABBAiwuAd8ECDA8gGZJaIh0IkAy5Srh2bs0BPzvi9XSdluTzSw6KLrAq7ranxsQmueWa6x4YqmfeW3lVt8Z9frogAEEIiugD1R0sW3/oOsk8fUP/thXhuM7qjpDAEEELhWgACLu8IHAQIsH5BZIhoCnQiwLsv89IJl+vTgW/W9sLxXCvlBoF0ClYmqtr6yUsd3HlT/w/9cuds+c91LG+mMEj15Nn5vFzzXQSCqAq4rx6rJGR+7psPh9d9X7egO9c/+CTZsj+r86QsBBBD4OAECLO4NHwQIsHxAZoloCHQywPKEvr3wJT0wuEI1J1d/GosfBNolYNVsHdq8U8cODGvsQkXe01kf/UnketVzx1Pq/8zj7VqW6yCAQAQFKqePanTLX6l27sg13SWdXuWn3atUpj+CndMSAggggMANBQiwuEF8ECDA8gGZJaIh0OkAa1qqrF+69U80M3tCllOQy35Y0bhxAtSFF2SVRsd1nfxKhzfv0uENW5S565c1+OX/UWYqHaDKKQUBBIIg4G3OfvaZ35TKo+qf/ZVrSkpleoNQJjUggAACCHRDgACrG+qxW9N48Q2+Qhi7qdNwSwJDlfZ+hfB6RcxIj+tXb/+essnR+obuhFgtjYqTWhBwHEenDp3WO6+ulzt4n/o+/ytKD85q4UqcggACURSonDqsC6//nszKRD28SiSzUWyTnhBAAAEEWhW4HGD9BF8hbJWQ824uQIB1cyOOQKAu4EeA5a2zOHdKv3jrn8l2c6o6GRVSZ5kAAr4JDJ8d0fpnXlGplNTAE7+j7CI2fvcNn4UQCKiANXpRZ5/7v+UWRzR94VMyTZ7QDOioKAsBBBDongABVvfsY7QyAVaMhk2rUxPwK8Dyqrx/2gF9Y8EPZRhOfWN3Q87UiudsBJoQKI9XtP5vXtHQxZR6H/qnyt16n4wk+7I1QcihCERDwHVVOXtMF175f2VWSxqY+4QMk38WRGO4dIEAAgi0WYAAq82gXO56AsaLb6y6djdfrBBA4BqByQDrlvrOVAmj839sHpz2rp6c/7eSkkqaE0wEAV8FrJql/Rv2au/Kncre+RVNe+gfyMz0+FoDiyGAQHcFqmeP68Lr/17u2KgG5j2mRDLX3YJYHQEEEEAguAK2JbdcVuonHpc5Z15w66SyUAsQYIV6fBTvp4DfAZYXlH1+cK+enP+X9cDMcr3wwPu/8oOAfwLHDpzS1mdflDv4sGY+9b8rkeuTDO5D/ybASgh0QcB1VRs+q3PP/xsZ5VFNX/j1LhTBkggggAACoRIgwArVuMJaLAFWWCdH3b4L+B1geQ2mDEdfnLlGj859Xo6bkeWyaa7vg2dBnT9xRjuXbdHFcwlN+9I/UO62z6KCAAIRFvA2bL/45u/LGC+qf463YXs+wt3SGgIIIIBAWwQIsNrCyEVuLECAxR2CQIMC3QiwLpf29JzVemj2c3KUluXwCkeDI+OwNgq4rqvlf7VU5w7s0rQn/0C5xXe18epcCgEEgiRw5q9/Xe7EmGYu/gZP/gZpMNSCAAIIBFmAACvI04lMbQRYkRkljXRaoJsBVo9p6ck5b+uzM9+Q7fbU/+IHAb8FrKqlfWu36cyRExo7N+z38qyHQAQFbFkTplw3WK/l9hRuV2H6Z2UmMhE0pyUEEEAAgY4IEGB1hJWLXi1gvMQm7twTCDQk4AVYa33cxP2jRaVNW1+ZuUU/PmuJTMOSQ4jV0Nw4qL0CjuOoVrFUnai098JcDYHYCbhKmkUd2JLVuaPB+rJfIlmQwV53sbsjaRgBBBCYksAVAVaCTdynRMnJHy9AgMXdgUCDAt0OsLwyvT2xnpr7Vv1JLG9PLEKsBofHYQgggEDgBFwZzpiO7snoyFaedArceCgIAQQQQKA5AQKs5rw4uiUBAqyW2DgpjgJBCLA892zC0iMz1+oLs1+U46Zls7F7HG9HekYAgdALuDKdok68m9KB9bwWHvpx0gACCCAQdwECrLjfAb70T4DlCzOLREEgKAHWZcufnLtMn5/5ilwjKZuN3aNwi9EDAgjETCBplHTycEJ7VxFgxWz0tIsAAghET4AAK3ozDWBHxktvrnIDWBclIRA4gXqAdfYWeduCJIzu/7HJmjU9Nnu5Pj/ztfrrhDyJFbhbhoIQQACBGwoQYHGDIIAAAghERuBygPXlx8UeWJGZauAaMV56c3X3/0s8cCwUhMC1AkOVXKACLK/ChOHox6bt0NcX/oUcpXkSixsXAQQQCJEAAVaIhkWpCCCAAAI3FvggwHqCAIt7pWMCBFgdo+XCUROYfAJrcWCewLrsmzQcfWXWCn159ss8iRW1m45+EEAg0gIEWJEeL80hgAAC8RIgwIrXvLvULQFWl+BZNnwCQQ2wPEkvxHpwYJcenfOqepJDsp18+ICpGAEEEIiZAAFWzAZOuwgggECUBQiwojzdwPRGgBWYUVBI0AWCHGB5doZcfX5wnx6b+4zSiZIcJydXZtBZqQ8BBBCIp4DrSk5RZ46l2MQ9nncAXSOAAALREiDAitY8A9oNAVZAB0NZwRMIeoDliaUMR7cXjulbC3+obPKirPrXCQmxgnc3URECCMRegAAr9rcAAAgggECkBAiwIjXOoDZDgBXUyVBX4ATCEGBdRluUPatfuOW/KJscVcUeVNIsB86TghBAAIF4C7hKGkUd2pnWka2ZeFPQPQIIIIBA+AUIsMI/wxB0QIAVgiFRYjAEwhRgeWK35c7qsTkva1Fhrxw3K8dNBQOSKhBAAAEEJBFgcRsggAACCERIgAArQsMMbivGy2+udoNbHpUhEBwBL8Bac3axTENKGOH4Y9OfnNDPLforLS7ske3m5Ljp4IBSCQIIIBBrAQKsWI+f5hFAAIGoCVwKsNJffkKJOfOi1h39BESAACsgg6CM4AuEMcDyVPOJmv7+LX+qedmTmrBnqycxVN/ynR8EEEAAgW4KEGB1U5+1EUAAAQTaLECA1WZQLnc9AQIs7gsEGhQIa4DltddjWnp45gZ9YeZbShoT9VcK+UJhg4PnMAQQQKAjAq6S5pj2bsjo5F72wOoIMRdFAAEEEPBPgADLP+sYr0SAFePh03pzAmEOsC53+vDgAX157l9Ibk4Js1YPsQyF43XI5qbF0QgggEDQBSYDrN1rMjp1kAAr6NOiPgQQQACBmwgQYHGL+CBgvPzWGv7r1Qdolgi/wFAlN7kHlsKzB9b11G/Pn9TT857XzJ5jqtgz+EJh+G9NOkAAgVAKXAqw1vbo1AH2JwzlCCkaAQQQQOBDgcsB1leeZA8s7ouOCRBgdYyWC0dNICoBljeXGemSfmHx32pGdqcct0e2y2//o3a/0g8CCARdwAuwRrX5tZyGT/OV2KBPi/oQQAABBG4iQIDFLeKDAAGWD8gsEQ2BKAVY3kRSpq0nZ6/QZ2e8JhmmHId9saJxp9IFAgiEQ4AAKxxzokoEEEAAgYYECLAaYuKgqQkQYE3Nj7NjJBC1AKseYhmO7u49rK/Nf1H51CnZbl6um4jRVGkVAQQQ6JaAq5Q5olV/W1C5mOxWEayLAAIIIIBAewQIsNrjyFVuKECAxQ2CQIMCUQywLre+KHda31rwN5rec0y2m5Pjev8xZTQow2EIIIAAAs0LTAZYK3/Qq0qZXxw078cZCCCAAAKBEiDACtQ4oloMAVZUJ0tfbReIcoDlYc3KjOqzg+v1YzNWyDAsOU6u/pVCfhBAAAEEOiFwKcD6YZ8qE/yzthPCXBMBBBBAwEcBAiwfseO7FAFWfGdP500KRD3Ausxxf98xfXPR95Qya7KcAiFWk/cJhyOAAAKNCBiyZdhjWv13faqWCbAaMeMYBBBAAIEACxBgBXg40SmNACs6s6STDgvEJcDyGOdlRvXUvOe0uLBHrlJy+Ephh+8uLo8AAnET+DDA6le1zCvbcZs//SKAAAKREyDAitxIg9gQAVYQp0JNgRSIU4A1N1PU1+Yt0S29m+S4qfq+WPwggAACCLRPoB5gOUWt/lvvCSwCrPbJciUEEEAAga4IEGB1hT1uixJgxW3i9NuyQNQDrLRpa17POf3owA59evob9VcHvfDKcdMSe2G1fN9wIgIIIHA9AcOoyS6Pa90LfaoRYHGTIIAAAgiEXYAAK+wTDEX9xpK31rqhqJQiEeiygBdgrT67qB7lJIxo/bG5LXdBD896VfNzx5RLDstxe+S6Cfa/6vI9x/IIIBBdgckAa0LrXuglwIrumOkMAQQQiI/ApQAr85WvKjFnXnz6plNfBQiwfOVmsTALRC3AShm2Zvdc1BcGd+u+6S/JVaL+tNXkE1e8zhLme5XaEUAg+AJ2pSK5Fa33AqwK/8wN/sSoEAEEEEDghgIEWNwgPggYS97mCSwfnFkiAgL1AOtM+J/AShqO7iyc1AMDa7S4cFi5xLAcZeS6SZ64isB9SgsIIBAOgYQxoZFztt55My+7RoAVjqlRJQIIIIDAxwpcGWDN5Qks7pTOCBBgdcaVq0ZQIAoB1qz0uL614EXNL2yafOLKycpRMoLToiUEEEAg2AJJs6gz7xnavTInxybACva0qA4BBBBA4KYCBFg3JeKAqQsQYE3dkCvERCCsAZa3Oftt+fd1/7Qtuqd/oxKGI0cpuW5KLq8KxuTupU0EEAiaQNIc0ckDKe1bn5PrBK066kEAAQQQQKBJAQKsJsE4vBUBAqxW1DgnlgJhDLAWZy/q8bkva172kFKJshwnc+mJK37bH8ubmKYRQCAQAoZcJY0Rvbs1oyM7s4GoiSIQQAABBBCYkgAB1pT4OLkxAQKsxpw4CgGFJcDynrhalDupn5i5Trf2XnpV0M3Icb1XBQmuuJURQACBbgsYhq2ExrRvQ1Yn9mW6XQ7rI4AAAgggMHUBAqypG3KFmwoQYN2UiAMQmBQIeoDl/Ub/rsL7+tyMt3RL4bCSRkV2fXP2BMEVNzECCCAQIAHTsGS4Re1cmdXZowRYARoNpSCAAAIItCpAgNWqHOc1IUCA1QQWh8ZbIKgBVtKwNTszoqfnrNTivlVy6ntbXX7iKt4zo3sEEEAgiAKmUZHhlLVtWUEXTni/ZOAHAQQQQACBkAsQYIV8gOEonwArHHOiygAIBC3AShmO7iyc0H0DG3RH726lzXJ9c/aKPU0pczwAYpSAAAIIIHA9gYRRlmtXtH5Jr8aHTJAQQAABBBAIvwABVvhnGIIOCLBCMCRKDIZAkAKsOemSnpz7um7r2yjT+6qgk720OXswrKgCAQQQQODjBRJGSeUxR2uf65XrIoUAAggggEAEBAiwIjDE4LdgLHl7Hf+vU/DnRIUBEJgMsBbK+115wvD/j03GtDU/e06fnrZND0x/W7bTI8Mw2Jw9APcGJSCAAAKNChhylDBLOnMsoZ1Lc42exnEIIIAAAggEW+CqAGt+sGulutAKEGCFdnQU7rdANwOsW7MX9aXZr2h+7qiyyVE5To9s1wuwbL8ZWA8BBBBAYAoCVqWmTLqknWsLOnvI+zosPwgggAACCERAgAArAkMMfgsEWMGfERUGRMDvACtl2Jrbc16fG9yj+6cvkStTjpuu/yUZAVGhDAQQQACBZgRMo6zaRFWr/qavmdM4FgEEEEAAgWALEGAFez4Rqc5YspRXCCMyS9rosMBQ2Z9XCL3XE2/LndXnZryphfljyiWG5Sgj103WQyx+EEAAAQTCKuAqaYzq3XcyOrqzJ6xNUDcCCCCAAALXCngB1kRZmUe+qsRcXiHkFumMgPEKAVZnZLlq5AS8AGtVB/fAMuVqVqaox2ev0V3T3qw/ZWW72UtPXEWOk4YQQACB2Al4T1/Z1Yq2Lyto+Ewidv3TMAIIIIBAhAWuCLCSBFgRHnR3WyPA6q4/q4dIoFMBVtq0tTB7Xp8ZWK97+rcolSjXQytXKbkuT1yF6BahVAQQQOBjBVzXUcos6vzJhHatysmq8io4twsCCCCAQIQECLAiNMzgtkKAFdzZUFnABDoRYC3oGdVjc17VwvxupRMTctwMe1wFbO6UgwACCLRDwFRFCXNCW5cWdOE4m7e3w5RrIIAAAggESIAAK0DDiG4pBFjRnS2dtVmgXQGW98TV/J6z+tGBnXpg+uv1fa1cNyXbzUjscdXmqXE5BBBAoPsChhwljKLOHk9ox7J89wuiAgQQQAABBNotQIDVblGudx0BAixuCwQaFGhHgHV77px+bPoG3dq7Q7nkRTluz6XN2dkLpcExcBgCCCAQMgFXCXNc4yOOti/LaXyEf96HbICUiwACCCDQiAABViNKHDNFAeOVpevdKV6D0xGIhcBkgLWg/oyU96XARn+ShqPZmRF9ccY23TltldLmaP01QW+Ddm+jdn4QQAABBKIrYKhWf/rqyI6sDm3jy4PRnTSdIYAAAjEXqAdYE8o88pTYxD3m90IH2yeMbF9BAAAgAElEQVTA6iAul46WQLMBVspwNK9nWA8ObtRtvXvUl35frrfHldJyXX4DH627g24QQACB6wk4SqiksSFD77ydV22CX1pwnyCAAAIIRFSAACuigw1WWwRYwZoH1QRYoNkA62fmrdKnBt9QyvQ2Z/f2uGLfkwCPl9IQQACBtgskjAk5VkUrn+mXXSO8ajswF0QAAQQQCI4AAVZwZhHhSgiwIjxcWmuvQCMB1ox0SfdP26lPD2xVf+ZIfXN2103LEV+cau80uBoCCCAQbAHTKMtwyjq4LatjuzNS42+eB7sxqkMAAQQQQOB6AgRY3Bc+CBBg+YDMEtEQuFGA5b0u+PCMbXpw+hsqpEZkyJjcoJ2vCkZj+HSBAAIINCFgqibTLOnMe2ntWZPl6asm7DgUAQQQQCCkAgRYIR1cuMomwArXvKi2iwLXC7B6k2Xdmjuur857VX3pY/VXBSeDK/a46uKoWBoBBBDomoAhWwljct+rDS/1dq0OFkYAAQQQQMBXAQIsX7njuhgBVlwnT99NC1wZYPUma/rRaft078Bqzcm+d+mJq7RcXhVs2pUTEEAAgagIGHKUMEsqDkm71+Q0doFfZkRltvSBAAIIIHATAQIsbhEfBIxXlq1nVwYfoFki/AJDlaw2nJ6nO/On9dV5L2pG9nD9SatibYGyyaHwN0gHCCCAAAJTEvC+OFidsLRnQ14XjrH34ZQwORkBBBBAIFwClwOsR59Scu78cNVOtaERIMAKzagotNsClmVo0Dimewdfk+3kVHN7lTTHJfFlqW7PhvURQACB7gq4Shhl2dWq9m3M6fShVHfLYXUEEEAAAQT8FiDA8ls8lusZr/IEViwHT9PNCxQSF3RP7nUZhitX3n+c8PBi84qcgQACCERPIGFMyHDL9fDq5P6MXP71EL0h0xECCCCAwI0FLgVYPTyBxZ3SQQECrA7iculoCfQmzuue/CuSkmzSHq3R0g0CCCDQooD3rdmaDHdCp4+mtHtVrsXrcBoCCCCAAAIhFyDACvkAw1G+8eqyDfyeMByzosouC/QmzhFgdXkGLI8AAggEScALr0yN6/j+lA5uycqxeKU8SPOhFgQQQAABHwU+CLCeZg8sH9njthQBVtwmTr8tC0w+gbWEJ7BaFuREBBBAIDoCjmUplShp6ExCu1bnVR0nvIrOdOkEAQQQQKBpAQKspsk4oXkBAqzmzTgjpgIEWDEdPG0jgAACHxGwa5PhVWnE1O41ORUvJjBCAAEEEEAg3gIEWPGev0/dE2D5BM0y4RcgwAr/DOkAAQQQmKqAIVtJY0zFEVPvvFVQuWhO9ZKcjwACCCCAQPgFCLDCP8MQdECAFYIhUWIwBAiwgjEHqkAAAQS6JeCFVwmjpOKwoT1rcho9z5NX3ZoF6yKAAAIIBEyAACtgA4lmOQRY0ZwrXXVAgACrA6hcEgEEEAiJwOUnr0aHEtq+NM+TVyGZG2UigAACCPgkQIDlE3S8lyHAivf86b4JAQKsJrA4FAEEEIiQgCFLCWNcpRHVN2wf48mrCE2XVhBAAAEE2iJAgNUWRi5yYwECLO4QBBoUIMBqEIrDEEAAgQgJTL42WNToRVO7V+VVGmbPqwiNl1YQQAABBNolQIDVLkmucwMB49XlG1yEEEDg5gL1ACu3RFJSrtj35OZiHIEAAgiEW+DKDdt3LPfCK/7ZH+6JUj0CCCCAQMcEvACrPKGeR59Wcu78ji3DheMtQIAV7/nTfRMCBFhNYHEoAgggEHIBw/tVhTGmsYvSnrV5jV0gvAr5SCkfAQQQQKCTAgRYndTl2pcECLC4FRBoUIAAq0EoDkMAAQRCLuCFV0ljRGPDpra9VVC5xGuDIR8p5SOAAAIIdFqAAKvTwlxfEgEWtwECDQoQYDUIxWEIIIBAiAUMOUoYJZVLtnavzmvodCrE3VA6AggggAACPgkQYPkEHe9ljNeWb2QPrHjfA3TfoEBv4lx9DyyXPbAaFOMwBBBAIFwCk68NFjU+amvbW72aGOO1wXBNkGoRQAABBLol4F4KsLKPfo09sLo1hBisS4AVgyHTYnsECLDa48hVEEAAgSAKeE9emUZJVtnWnjV5nT/Bk1dBnBM1IYAAAggEU4AAK5hziVpVBFhRmyj9dEyAAKtjtFwYAQQQ6KqA9+SVF165lqV33spr+AzhVVcHwuIIIIAAAqETIMAK3chCWTABVijHRtHdECDA6oY6ayKAAAKdFbj8tUGn5mjrmwWNnEt2dkGujgACCCCAQAQFCLAiONQAtkSAFcChUFIwBQiwgjkXqkIAAQRaFbjyyStvw/az7/HkVauWnIcAAgggEG8BAqx4z9+v7gmw/JJmndALEGCFfoQ0gAACCHwg8MGTV5ajTa/0qjjEhu3cHggggAACCLQqQIDVqhznNSNAgNWMFsfGWoAAK9bjp3kEEIiQwOSG7eNyapa8J6/OHePJqwiNl1YQQAABBLogQIDVBfQYLkmAFcOh03JrAgRYrblxFgIIIBAkgcnXBotyLVtb32DPqyDNhloQQAABBMIrQIAV3tmFqXLjtRUb3TAVTK0IdEugHmBll8hVUq541aRbc2BdBBBAoFUB78mrhFGSVbW1c0VBF99nw/ZWLTkPAQQQQACBKwU+CLAe+5qSc+eDg0BHBIzXVmwiwOoILReNmsCHAVaCACtqw6UfBBCIvMCVG7bvXJHT+RPpyPdMgwgggAACCPglcHWAtcCvZVknZgIEWDEbOO22LkCA1bodZyKAAALdFJjcsH1Uju1q00t5FUfY86qb82BtBBBAAIHoCRBgRW+mQeyIACuIU6GmQAoQYAVyLBSFAAII3FDg8obtrmVp96qczh7jyStuGQQQQAABBNotQIDVblGudz0BAizuCwQaFCDAahCKwxBAAIGACEw+eVWUY9na9DJPXgVkLJSBAAIIIBBBAQKsCA41gC0RYAVwKJQUTAECrGDOhaoQQACB6/6GTo5MoyS7atefvGLPK+4TBBBAAAEEOidAgNU5W678oYDxOpu4cz8g0JCAF2DdXf8KIZu4NwTGQQgggECXBK7csH3bWzkNneG1wS6NgmURQAABBGIicDnAytW/Qsgm7jEZu+9tEmD5Ts6CYRUgwArr5KgbAQTiJODteeW9NmhXHW17K6/hc2zYHqf50ysCCCCAQHcECLC64x63VQmw4jZx+m1ZgACrZTpORAABBHwRuPLJq10rczp3nCevfIFnEQQQQACB2AsQYMX+FvAFgADLF2YWiYIAAVYUpkgPCCAQVYHJDdvH5FiOdqwq6MKxZFRbpS8EEEAAAQQCJ0CAFbiRRLIgAqxIjpWmOiFAgNUJVa6JAAIItEHAdSRrXKZpaf/mnE4dSMt123BdLoEAAggggAACDQkQYDXExEFTFCDAmiIgp8dHgAArPrOmUwQQCI+A9+SVUy3KNG3tXpvX+WMpeXkWPwgggAACCCDgnwABln/WcV7JeH3FZn5HGec7gN4bFpgMsF6Wq2T9S4T8IIAAAgh0WcB15NZKMg1L+zfldepd9rzq8kRYHgEEEEAgpgKTAda4co/9JF8hjOk94EfbBFh+KLNGJAQIsCIxRppAAIGICHhPXnnhleGFVxtzOn04zZNXEZktbSCAAAIIhE+AACt8MwtjxcbrK3kCK4yDo2b/BeoBVg9PYPkvz4oIIIDA1QKTG7YX5ViWdq0u6Nx7KYgQQAABBBBAoIsCVwVY8xZ0sRKWjrIAAVaUp0tvbRUgwGorJxdDAAEEWhIw5Mg0JuRa1Q9eG2TPq5YoOQkBBBBAAIG2CRBgtY2SC91AgACL2wOBBgUIsBqE4jAEEECgQwKTT16V6k9e7VhV0MXjSb422CFrLosAAggggEAzAgRYzWhxbKsCBFitynFe7AQIsGI3chpGAIEACUw+eTUup1bTgc15vX8wLfEZmgBNiFIQQAABBOIsQIAV5+n71zsBln/WrBRyAQKskA+Q8hFAILQC3pNXplGSa1nasy6vs0dTbNge2mlSOAIIIIBAFAUIsKI41eD1RIAVvJlQUUAFCLACOhjKQgCBSAt4T14ljHHZ1Zr2bizozCE2bI/0wGkOAQQQQCCUAgRYoRxb6IomwArdyCi4WwIEWN2SZ10EEIirwOSTV+NyrZr2bczp9KE0T17F9WagbwQQQACBQAsQYAV6PJEpznhj5WZ2kIjMOGmkkwJegHVXz8tylfS2Ee7kUlwbAQQQiL3A5IbtxckN21f26sLxZOxNAEAAAQQQQCCoAlcGWKl5C4JaJnWFXIAAK+QDpHz/BAiw/LNmJQQQiLdA/ckrleXaZe3flNepd3nyKt53BN0jgAACCARdgAAr6BOKRn3GGyu38ARWNGZJFx0WmAywXuIJrA47c3kEEIi3wGR4VamHVztXFXThRJLXBuN9S9A9AggggEAIBD4MsL4unsAKwcBCWiIBVkgHR9n+CxBg+W/OigggEC8B13GVNMtyrLIO78zp2M5MvADoFgEEEEAAgZAKEGCFdHAhK5sAK2QDo9zuCRBgdc+elRFAIB4ChjMhORUd3pHVyf1p2TUjHo3TJQIIIIAAAiEXIMAK+QBDUr7xxipeIQzJrCizywK9Jq8QdnkELI8AAhEWSMh78mpCh7bndXxPOsKd0hoCCCCAAALRE3AtS255XLnHeYUwetMNTkcEWMGZBZUEXIAAK+ADojwEEAitgBdeeXtenTjYo8PvZGRbPHkV2mFSOAIIIIBALAUIsGI5dt+bJsDynZwFwypAgBXWyVE3AggEWeByeHXmeEb71vbIsQmvgjwvakMAAQQQQOB6AgRY3Bd+CBBg+aHMGpEQIMCKxBhpAgEEgiLgTn5t0DTGdepIj/atyxJeBWU21IEAAggggECTAgRYTYJxeEsCBFgtsXFSHAUIsOI4dXpGAIFOCTjVstLpCZ1+L6MDG7KqVXjyqlPWXBcBBBBAAIFOCxBgdVqY63sCBFjcBwg0KECA1SAUhyGAAAI3EnBd2bWKMulxnTraoz2rcnghgAACCCCAQMgFCLBCPsCQlE+AFZJBUWb3BQiwuj8DKkAAgfALWOWyenomdOpIRgc3Z1Ur8+RV+KdKBwgggAACcRcgwIr7HeBP/wRY/jizSgQECLAiMERaQACBrgqMXahqcEZRp97r0e4VPHnV1WGwOAIIIIAAAm0UIMBqIyaX+lgBAixuDgQaFCDAahCKwxBAAIGPCLiuVC1VVOgt6eyxtPauy7PnFXcJAggggAACERIgwIrQMAPcivHmqq1ugOujNAQCI1Awz+munhflKilXicDURSEIIIBA4AUcS4Y9ptGhlHYsy8uq8tpg4GdGgQgggAACCDQhcDnAyj/+U0rNW9DEmRyKQOMCBFiNW3FkzAW8J7DuJMCK+V1A+wgg0LSAU5OsMY2cT2v70oK8p7H4QQABBBBAAIFoCRBgRWueQe2GACuok6GuwAkQYAVuJBSEAAIBFzBkyXSLmhgzte3tgiaKZsArpjwEEEAAAQQQaEWAAKsVNc5pVsB4czWvEDaLxvHxFKgHWBleIYzn9OkaAQSaFTBkK2GMqVw0tObZ/mZP53gEEEAAAQQQCJHABwHWE7xCGKKxha5UAqzQjYyCuyVAgNUtedZFAIHQCTg1Jc2SisOm9qzLa+w8+waGboYUjAACCCCAQBMCBFhNYHFoywIEWC3TcWLcBAiw4jZx+kUAgVYEDDmSNSrHlja93qeJEV4bbMWRcxBAAAEEEAiTAAFWmKYV3loJsMI7Oyr3WYAAy2dwlkMAgfAJOJaSiZKKQ4Z2rS6oNER4Fb4hUjECCCCAAALNCxBgNW/GGc0LEGA1b8YZMRUgwIrp4GkbAQQaE3BtGU5JdtXVO0sLKl7ktcHG4DgKAQQQQACB8AsQYIV/hmHogAArDFOixkAIEGAFYgwUgQACARSwqrYy6QmVi7Z2ryto5DThVQDHREkIIIAAAgh0TIAAq2O0XPgKAQIsbgcEGhQgwGoQisMQQCBWAt6eVwmNa6Joa9+GvC6+n4xV/zSLAAIIIIAAAhIBFneBHwIEWH4os0YkBAiwIjFGmkAAgTYLJFVUrWLryK6sju9Jt/nqXA4BBBBAAAEEwiBAgBWGKYW/RuPN1e+44W+DDhDovMBkgPWCXCXlitdjOi/OCgggEGwBR0mNy6paOrQ9pxP7CK+CPS+qQwABBBBAoHMCHwZY31Bq3oLOLcSVYy1AgBXr8dN8MwIEWM1ocSwCCERbwIvxx2UaFe3bVNDJfWm5/Dos2iOnOwQQQAABBG4gQIDF7eGHAAGWH8qsEQkBAqxIjJEmEECgDQLVYknpTG3yyau9PHnVBlIugQACCCCAQKgFCLBCPb7QFG+8xSuEoRkWhXZXoMArhN0dAKsjgEAgBNzauJLJst59J6/jezI8eRWIqVAEAggggAAC3RXwAiyVx5V/glcIuzuJaK9OgBXt+dJdGwUIsNqIyaUQQCCUAqYqMjWuo7uzOrS1J5Q9UDQCCCCAAAIItF+AAKv9plzxWgECLO4KBBoUIMBqEIrDEEAgggKuXKuiVHJCx/dldGBTLoI90hICCCCAAAIItCpAgNWqHOc1I2C8tYavEDYDxrHxFagHWGm+QhjfO4DOEYivgPfkVcIY1/mTKe1cmZddM+KLQecIIIAAAgggcI3ABwHWk7xCyO3ROQECrM7ZcuWICRBgRWygtIMAAg0JmKrJtcY1fDahXavzsiqEVw3BcRACCCCAAAIxEiDAitGwu9gqAVYX8Vk6XAIEWOGaF9UigMDUBQxZShpFnTuZ0r71WVVK5tQvyhUQQAABBBBAIHICBFiRG2kgGyLACuRYKCqIAgRYQZwKNSGAQKcEDNlKGEUVh0zt35TT8OlEp5biuggggAACCCAQcgECrJAPMCTlG2+t2eaGpFbKRKCrAgXzLHtgdXUCLI4AAn4J2DVbmXRRpRFDu1fnNXaB8Move9ZBAAEEEEAgjAJXB1gLw9gCNYdAgAArBEOixGAIEGAFYw5UgQACnRZwlTTGVJ1wtH15r0bPEV51WpzrI4AAAgggEHYBAqywTzAc9RNghWNOVBkAAQKsAAyBEhBAoMMCrky3pOq4rX0bcrpwMtXh9bg8AggggAACCERBgAArClMMfg8EWMGfERUGRIAAKyCDoAwEEOiQgFvf80q2pW1Le3XxVLJD63BZBBBAAAEEEIiaAAFW1CYazH4IsII5F6oKoAABVgCHQkkIINAmAS+8mpDsig5uzen43kybrstlEEAAAQQQQCAOAgRYcZhy93skwOr+DKggJAIEWCEZFGUigEDTAglV5DoT2rcppzOH0nLspi/BCQgggAACCCAQYwECrBgP38fWCbB8xGapcAsQYIV7flSPAALXFzBVkeGM6729WR3e1iPXQQoBBBBAAAEEEGhOgACrOS+Obk3AeHvNNre1UzkLgXgJeAHWJ9IvyFVSrvgqV7ymT7cIRFPAVFUJo6TT72W0b11WVtWIZqN0hQACCCCAAAIdFbgywErPW9jRtbh4fAWMt9cSYMV3/HTejEA9wEoRYDVjxrEIIBBcAUOOksawzr2f0fa38sEtlMoQQAABBBBAIPACHwRYX/2GCLACP67QFkiAFdrRUbjfAgRYfouzHgIIdErAkFV/8uriKVN71uRVGTc7tRTXRQABBBBAAIEYCBBgxWDIAWiRACsAQ6CEcAgQYIVjTlSJAAI3FvCevEoYRVlVR2uf61etwmuD3DMIIIAAAgggMDUBAqyp+XF2YwIEWI05cRQCIsDiJkAAgbALXA6vJsZc7VpT0OhZ9vML+0ypHwEEEEAAgSAIEGAFYQrRr8F4e+12NnGP/pzpsA0CkwHW85c2cU+24YpcAgEEEPBTwPv8REl2rabdawu6cDwll/8PwM8BsBYCCCCAAAKRFZgMsErKf/Wb7IEV2Sl3vzECrO7PgApCIvBhgJXiK4QhmRllIoDAZQEvvCrLqpb17raC3t+fggYBBBBAAAEEEGibAAFW2yi50A0ECLC4PRBoUIAAq0EoDkMAgcAJJDQuOWUd3pXT0e09gauPghBAAAEEEEAg3AIEWOGeX1iqJ8AKy6Sos+sCBFhdHwEFIIBACwKmqvVN20+826P963K8NtiCIacggAACCCCAwI0FCLC4Q/wQIMDyQ5k1IiFAgBWJMdIEArES8MIrUyWdOpzWnjX5WPVOswgggAACCCDgnwABln/WcV6JACvO06f3pgQIsJri4mAEEOiygGNZSqfGdPFUUrtWFVQrG12uiOURQAABBBBAIKoCBFhRnWyw+iLACtY8qCbAAgRYAR4OpSGAwFUChhyZGlPxoqF3lvaqNkF4xS2CAAIIIIAAAp0TIMDqnC1X/lCAAIu7AYEGBQiwGoTiMAQQ6LKAo6QxpokxVzuW96o4lOhyPSyPAAIIIIAAAlEXIMCK+oSD0R8BVjDmQBUhECDACsGQKBGB2Au4ShpFOVZNO1b26sKJVOxFAEAAAQQQQACBzgsQYHXemBUkAizuAgQaFCiY5/SJ1HNylZIrnmhokI3DEEDANwFXCWNCssvavbZXZ44QXvlGz0IIIIAAAgjEXOBygFX46jeVmrcw5hq03ykBY+m6HW6nLs51EYiSQME4qztSz8tVkgArSoOlFwQiImBXy8qkxnVoZ05Ht/dEpCvaQAABBBBAAIEwCHwYYP200vMJsMIwszDWSIAVxqlRc1cECLC6ws6iCCDQgICpqgy3pJPvZnRwc1aOxabtDbBxCAIIIIAAAgi0SYAAq02QXOaGAgRY3CAINChAgNUgFIchgICvAlbVVk9mVBdPJ7VzeUFWlfDK1wGwGAIIIIAAAgiIAIubwA8BAiw/lFkjEgIEWJEYI00gECkBQ94XB4c1fH4yvKqMm5Hqj2YQQAABBBBAIBwCBFjhmFPYqyTACvsEqd83AQIs36hZCAEEGhDwwquEUZRds7X5tT4Vh/i4RANsHIIAAggggAACHRAgwOoAKpe8RoAAi5sCgQYFCLAahOIwBBDwRSChcTlWRVve7NPYecIrX9BZBAEEEEAAAQSuK0CAxY3hhwABlh/KrBEJAQKsSIyRJhCIgICrhCZkVyt6d1te7x9Iy+V7whGYKy0ggAACCCAQXgECrPDOLkyVE2CFaVrU2lUBAqyu8rM4AghcEvC+OOi9OvjevqwOeV8cdKBBAAEEEEAAAQS6K0CA1V3/uKxOgBWXSdPnlAUIsKZMyAUQQGCKAqYsGRrTmaNp7V6Vn+LVOB0BBBBAAAEEEGiPAAFWexy5yo0FCLC4QxBoUIAAq0EoDkMAgY4IWFVLPemihs6Y2rmiV7WK0ZF1uCgCCCCAAAIIINCsAAFWs2Ic34oAAVYrapwTSwECrFiOnaYRCIiAq6TGNFFytfn1PlVLhFcBGQxlIIAAAggggIAkAixuAz8ECLD8UGaNSAgQYEVijDSBQAgFXCWNoiolWztX92rkDF8cDOEQKRkBBBBAAIFICxBgRXq8gWnOWLp+J98uCsw4KCTIApMB1nNy3aS8b4DxgwACCPghkDDGZboT2rupoJP7M34syRoIIIAAAggggEBTAvUAa6KkwlM/o/T8hU2dy8EINCpAgNWoFMfFXoAAK/a3AAAI+C/gVOQFWKePprVnDZu2+z8AVkQAAQQQQACBRgQIsBpR4pipChBgTVWQ82MjQIAVm1HTKAKBEDBVk5yiTh7M6N2tOTl2IMqiCAQQQAABBBBA4BoBAixuCj8ECLD8UGaNSAgQYEVijDSBQCgEDNlKGKO6eCqp3WsLqo6zaXsoBkeRCCCAAAIIxFSAACumg/e5bWMZe2D5TM5yYRXIswdWWEdH3QiESsDwdtkzxjQx5mrHioKKQ+y5F6oBUiwCCCCAAAIxFLgcYPWyB1YMp+9fywRY/lmzUsgFvCewbmcT95BPkfIRCLrA5BcHHaumLW/0afRCMugFUx8CCCCAAAIIICACLG4CPwQIsPxQZo1ICBBgRWKMNIFAoAUMZ0KGW9ah7Tkd35eR6wS6XIpDAAEEEEAAAQTqAgRY3Ah+CBBg+aHMGpEQIMCKxBhpAoHACliVqrI9RZ06mtHeNXk5hFeBnRWFIYAAAggggMDVAgRY3BF+CBBg+aHMGpEQIMCKxBhpAoFAChiylNCIzhzr0Z413hcH2bQ9kIOiKAQQQAABBBC4rgABFjeGHwIEWH4os0YkBAiwIjFGmkAgcAL18MooqlyUNr3Wp+qEGbgaKQgBBBBAAAEEELiRAAEW94cfAgRYfiizRiQECLAiMUaaQCBgAq4SKqkybmnLm30qjxFeBWxAlIMAAggggAACDQgQYDWAxCFTFjCWrd/lTvkqXACBGAgUjDN8hTAGc6ZFBPwT8MKrcdm1qvZuKOjs0ZR/S7MSAggggAACCCDQRoGrA6xFbbwyl0LgQwECLO4GBBoUmHwC61m5blLef3bygwACCExFwFRZCWNc+7dkdXxPdiqX4lwEEEAAAQQQQKCrAgRYXeWPzeIEWLEZNY1OVaBgntXtSQKsqTpyPgIISKZqMlTUiX0pHdhcgAQBBBBAAAEEEAi1AAFWqMcXmuKNZRt4hTA006LQrgrUn8DyAizxBFZXB8HiCIRcwJCtpEZ1/v2Udq/Oq1bhi4MhHynlI4AAAgggEHuBDwKsp39G6fm8Qhj7G6JDAARYHYLlstETIMCK3kzpCAH/BbwIvKjqhKVda3o1dCrpfwmsiAACCCCAAAIItFmAAKvNoFzuugIEWNwYCDQoQIDVIBSHIYDAxwhMbtpuVap65+1ejV0gvOJWQQABBBBAAIFoCBBgRWOOQe+CACvoE6K+wAgQYAVmFBSCQCgFTFVk2CW9uz2nY7t7QtkDRSOAAAIIIIAAAtcTIMDivvBDgADLD2XWiIQAAVYkxkgTCHRFwFCt/urg6ffS2rchJ4t9r7oyBxZFAAEEEEAAgc4IEE+dn6cAABEeSURBVGB1xpWrXi1gLGcTd+4JBBoSyLOJe0NOHIQAAh/5F60cJTSq0Qumtr7RK9ti03buEQQQQAABBBCIlsCVAVaGTdyjNdwAdUOAFaBhUEqwBQiwgj0fqkMgiAJGPbwaU7noavuyXhWHE0Esk5oQQAABBBBAAIEpCRBgTYmPkxsUIMBqEIrDECDA4h5AAIFmBbxN2+1qRXvWF3T+WEqu2+wVOB4BBBBAAAEEEAi+AAFW8GcUhQoJsKIwRXrwRYAAyxdmFkEgMgKmajKcMb23N6dDW9m0PTKDpREEEEAAAQQQuEaAAIubwg8BY/mG3fw+2A9p1gi9QN44o9uTz8pVsv4XPwgggMDHCZiqytSYTh3OaN/6vBybfa+4WxBAAAEEEEAgugKuVZMmSup9+ltiD6zozrnbnRFgdXsCrB8aAQKs0IyKQhHoqsDkvlejmhiTNr3Wr1qZ8KqrA2FxBBBAAAEEEOi4AAFWx4lZQBIBFrcBAg0KEGA1CMVhCMRawHs+c0zjo452rOxVaYhN22N9O9A8AggggAACMREgwIrJoLvcJgFWlwfA8uERIMAKz6yoFIHuCLhKqCSnVtHutb06dyzdnTJYFQEEEEAAAQQQ8FmAAMtn8JguR4AV08HTdvMCBFjNm3EGAnESMFWR4ZR0fF+PDm7Jxal1ekUAAQQQQACBmAsQYMX8BvCpfWP5RjZx98maZUIuUA+wEmziHvIxUj4CHREwZMu0R3Ty3bQObs3Lsdj3qiPQXBQBBBBAAAEEAinwQYD1NTZxD+SAIlIUAVZEBkkbnRfIGed1W+J5JTXa+cVYAQEEQiXgutLoOVvbl5iqlAivQjU8ikUAAQQQQACBqQu4joxMj/qe/hml58yb+vW4AgLXESDA4rZAoEEBQ676jePKG8caPIPDEEAgLgLVWk7njo6rdD4uHdMnAggggAACCCBwtUBy7nxlFt0KCwIdEyDA6hgtF46ugBvd1ugMAQQQQAABBBBAAAEEEGhJgKfQW2LjpIYFCLAapuJABBBAAAEEEEAAAQQQQAABBBBAAIFuCBgr2MS9G+6siQACCCCAAAIIIIAAAggggAACCCDQoICxYuMe3odqEIvDEEAAAQQQQAABBBBAAAEEEEAAAQT8FyDA8t+cFRFAAAEEEEAAAQQQQAABBBBAAAEEmhAgwGoCi0MRQAABBBBAAAEEEEAAAQQQQAABBPwXIMDy35wVEUAAAQQQQAABBBBAAAEEEEAAAQSaECDAagKLQxFAAAEEEEAAAQQQQAABBBBAAAEE/BcgwPLfnBURQAABBBBAAAEEEEAAAQQQQAABBJoQMFZs4iuETXhxKAIIIIAAAggggAACCCCAAAIIIICAzwIEWD6DsxwCCCCAAAIIIIAAAggggAACCCCAQHMCBFjNeXE0AggggAACCCCAAAIIIIAAAggggIDPAgRYPoOzHAIIIIAAAggggAACCCCAAAIIIIBAcwIEWM15cTQCCCCAAAIIIIAAAggggAACCCCAgM8CxopNe12f12Q5BBBAAAEEEEAAAQQQQAABBBBAAAEEGhYgwGqYigMRQAABBBBAAAEEEEAAAQQQQAABBLohQIDVDXXWRAABBBBAAAEEEEAAAQQQQAABBBBoWIAAq2EqDkQAAQQQQAABBBBAAAEEEEAAAQQQ6IYAAVY31FkTAQQQQAABBBBAAAEEEEAAAQQQQKBhAWMlm7g3jMWBCCCAAAIIIIAAAggggAACCCCAAAL+CxBg+W/OiggggAACCCCAAAIIIIAAAggggAACTQgQYDWBxaEIIIAAAggggAACCCCAAAIIIIAAAv4LEGD5b86KCCCAAAIIIIAAAggggAACCCCAAAJNCBgrN+91mzieQxFAAAEEEEAAAQQQQAABBBBAAAEEEPBVgADLV24WQwABBBBAAAEEEEAAAQQQQAABBBBoVoAAq1kxjkcAAQQQQAABBBBAAAEEEEAAAQQQ8FWAAMtXbhZDAAEEEEAAAQQQQAABBBBAAAEEEGhWwFi5eR97YDWrxvEIIIAAAggggAACCCCAAAIIIIAAAr4JEGD5Rs1CCCCAAAIIIIAAAggggAACCCCAAAKtCBBgtaLGOQgggAACCCCAAAIIIIAAAggggAACvgkQYPlGzUIIIIAAAggggAACCCCAAAIIIIAAAq0IEGC1osY5CCCAAAIIIIAAAggggAACCCCAAAK+CRBg+UbNQggggAACCCCAAAIIIIAAAggggAACrQgYq/gKYStunIMAAggggAACCCCAAAIIIIAAAggg4JMAAZZP0CyDAAIIIIAAAggggAACCCCAAAIIINCaAAFWa26chQACCCCAAAIIIIAAAggggAACCCDgkwABlk/QLIMAAggggAACCCCAAAIIIIAAAggg0JqAsWrLPre1UzkLAQQQQAABBBBAAAEEEEAAAQQQQACBzgsYq7bsJ8DqvDMrIIAAAggggAACCCCAAAIIIIAAAgi0KECA1SIcpyGAAAIIIIAAAggggAACCCCAAAII+CNAgOWPM6sggAACCCCAAAIIIIAAAggggAACCLQoQIDVIhynIYAAAggggAACCCCAAAIIIIAAAgj4I0CA5Y8zqyCAAAIIIIAAAggggAACCCCAAAIItChAgNUiHKchgAACCCCAAAIIIIAAAggggAACCPgjQIDljzOrIIAAAggggAACCCCAAAIIIIAAAgi0KECA1SIcpyGAAAIIIIAAAggggAACCCCAAAII+CNAgOWPM6sggAACCCCAAAIIIIAAAggggAACCLQoYKzest9t8VxOQwABBBBAAAEEEEAAAQQQQAABBBBAoOMCBFgdJ2YBBBBAAAEEEEAAAQQQQAABBBBAAIGpCBirtxzgCaypCHIuAggggAACCCCAAAIIIIAAAggggEBHBQiwOsrLxRFAAAEEEEAAAQQQQAABBBBAAAEEpipgrN7KE1hTReR8BBBAAAEEEEAAAQQQQAABBBBAAIHOCRBgdc6WKyOAAAIIIIAAAggggAACCCCAAAIItEGAAKsNiFwCAQQQQAABBBBAAAEEEEAAAQQQQKBzAgRYnbPlyggggAACCCCAAAIIIIAAAggggAACbRAgwGoDIpdAAAEEEEAAAQQQQAABBBBAAAEEEOicAAFW52y5MgIIIIAAAggggAACCCCAAAIIIIBAGwQIsNqAyCUQQAABBBBAAAEEEEAAAQQQQAABBDonQIDVOVuujAACCCCAAAIIIIAAAggggAACCCDQBgECrDYgcgkEEEAAAQQQQAABBBBAAAEEEEAAgc4JEGB1zpYrI4AAAggggAACCCCAAAIIIIAAAv9/e3duHFcQBFEwxn+3uAcV4hJJAvTk04dqdElpQE1HpPhiDwLfICBgfQOiJwgQIECAAAECBAgQIECAAAECBPYEzo9fv6+9571MgAABAgQIECBAgAABAgQIECBAYCYgYM38rAkQIECAAAECBAgQIECAAAECBJYFzu3FJ7CWjT1PgAABAgQIECBAgAABAgQIECAwEBCwBnimBAgQIECAAAECBAgQIECAAAEC+wIC1r6xCwQIECBAgAABAgQIECBAgAABAgMBAWuAZ0qAAAECBAgQIECAAAECBAgQILAvIGDtG7tAgAABAgQIECBAgAABAgQIECAwEBCwBnimBAgQIECAAAECBAgQIECAAAEC+wIC1r6xCwQIECBAgAABAgQIECBAgAABAgMBAWuAZ0qAAAECBAgQIECAAAECBAgQILAvIGDtG7tAgAABAgQIECBAgAABAgQIECAwEBCwBnimBAgQIECAAAECBAgQIECAAAEC+wIC1r6xCwQIECBAgAABAgQIECBAgAABAgOBc3v5cw32pgQIECBAgAABAgQIECBAgAABAgRWBc7tVcBaFfY4AQIECBAgQIAAAQIECBAgQIDASEDAGvEZEyBAgAABAgQIECBAgAABAgQIbAucu09gbRt7nwABAgQIECBAgAABAgQIECBAYCAgYA3wTAkQIECAAAECBAgQIECAAAECBPYFBKx9YxcIECBAgAABAgQIECBAgAABAgQGAgLWAM+UAAECBAgQIECAAAECBAgQIEBgX0DA2jd2gQABAgQIECBAgAABAgQIECBAYCAgYA3wTAkQIECAAAECBAgQIECAAAECBPYFBKx9YxcIECBAgAABAgQIECBAgAABAgQGAgLWAM+UAAECBAgQIECAAAECBAgQIEBgX+DcX/9e+2dcIECAAAECBAgQIECAAAECBAgQIJAJCFiZmxUBAgQIECBAgAABAgQIECBAgEBJQMAqQTtDgAABAgQIECBAgAABAgQIECCQCQhYmZsVAQIECBAgQIAAAQIECBAgQIBASUDAKkE7Q4AAAQIECBAgQIAAAQIECBAgkAkIWJmbFQECBAgQIECAAAECBAgQIECAQEng3N/8C2HJ2hkCBAgQIECAAAECBAgQIECAAIFAQMAK0EwIECBAgAABAgQIECBAgAABAgR6AgJWz9olAgQIECBAgAABAgQIECBAgACBQOA8fIUwYDMhQIAAAQIECBAgQIAAAQIECBBoCQhYLWl3CBAgQIAAAQIECBAgQIAAAQIEIoHzePu8oqURAQIECBAgQIAAAQIECBAgQIAAgYKAgFVAdoIAAQIECBAgQIAAAQIECBAgQCAXELByO0sCBAgQIECAAAECBAgQIECAAIGCgIBVQHaCAAECBAgQIECAAAECBAgQIEAgFxCwcjtLAgQIECBAgAABAgQIECBAgACBgoCAVUB2ggABAgQIECBAgAABAgQIECBAIBcQsHI7SwIECBAgQIAAAQIECBAgQIAAgYLAebx/XoU7ThAgQIAAAQIECBAgQIAAAQIECBCIBASsiM2IAAECBAgQIECAAAECBAgQIECgJSBgtaTdIUCAAAECBAgQIECAAAECBAgQiAQErIjNiAABAgQIECBAgAABAgQIECBAoCUgYLWk3SFAgAABAgQIECBAgAABAgQIEIgEztOPuEdwRgQIECBAgAABAgQIECBAgAABAh2B83z/8i+EHWtXCBAgQIAAAQIECBAgQIAAAQIEAgEBK0AzIUCAAAECBAgQIECAAAECBAgQ6AkIWD1rlwgQIECAAAECBAgQIECAAAECBAIBAStAMyFAgAABAgQIECBAgAABAgQIEOgJCFg9a5cIECBAgAABAgQIECBAgAABAgQCAQErQDMhQIAAAQIECBAgQIAAAQIECBDoCQhYPWuXCBAgQIAAAQIECBAgQIAAAQIEAgEBK0AzIUCAAAECBAgQIECAAAECBAgQ6AkIWD1rlwgQIECAAAECBAgQIECAAAECBAIBAStAMyFAgAABAgQIECBAgAABAgQIEOgJCFg9a5cIECBAgAABAgQIECBAgAABAgQCgfP8+LqCnQkBAgQIECBAgAABAgQIECBAgACBioCAVWF2hAABAgQIECBAgAABAgQIECBAIBU4z49/PoGV6tkRIECAAAECBAgQIECAAAECBAisCwhY68QOECBAgAABAgQIECBAgAABAgQITAQErImeLQECBAgQIECAAAECBAgQIECAwLrA+ekrhOvIDhAgQIAAAQIECBAgQIAAAQIECOQCAlZuZ0mAAAECBAgQIECAAAECBAgQIFAQELAKyE4QIECAAAECBAgQIECAAAECBAjkAgJWbmdJgAABAgQIECBAgAABAgQIECBQEBCwCshOECBAgAABAgQIECBAgAABAgQI5AICVm5nSYAAAQIECBAgQIAAAQIECBAgUBAQsArIThAgQIAAAQIECBAgQIAAAQIECOQCAlZuZ0mAAAECBAgQIECAAAECBAgQIFAQ+A+Aofzwkt+V9gAAAABJRU5ErkJggg==;" vertex="1" parent="1">
          <mxGeometry width="1200" height="736" as="geometry" />
        </mxCell>
      </root>
    </mxGraphModel>
  </diagram>
</mxfile>
